G04 EAGLE Gerber RS-274X export*
G75*
%MOMM*%
%FSLAX34Y34*%
%LPD*%
%INTop Copper*%
%IPPOS*%
%AMOC8*
5,1,8,0,0,1.08239X$1,22.5*%
G01*
%ADD10C,1.879600*%
%ADD11R,2.000000X1.200000*%
%ADD12R,1.350000X0.600000*%
%ADD13R,1.308000X1.308000*%
%ADD14C,1.308000*%
%ADD15R,1.850000X1.850000*%
%ADD16C,1.850000*%
%ADD17R,0.304800X0.990600*%
%ADD18C,0.203200*%
%ADD19C,0.254000*%
%ADD20C,1.500000*%


D10*
X591566Y594868D03*
X616966Y594868D03*
X642366Y594868D03*
X667766Y594868D03*
X693166Y594868D03*
X718566Y594868D03*
X743966Y594868D03*
X769366Y594868D03*
X794766Y594868D03*
X820166Y594868D03*
X845566Y594868D03*
X870966Y594868D03*
X896366Y594868D03*
X896366Y620268D03*
X870966Y620268D03*
X845566Y620268D03*
X820166Y620268D03*
X794766Y620268D03*
X769366Y620268D03*
X743966Y620268D03*
X718566Y620268D03*
X693166Y620268D03*
X667766Y620268D03*
X642366Y620268D03*
X616966Y620268D03*
X591566Y620268D03*
X921766Y594868D03*
X921766Y620268D03*
X947166Y594868D03*
X947166Y620268D03*
X972566Y594868D03*
X972566Y620268D03*
X997966Y594868D03*
X997966Y620268D03*
X1023366Y594868D03*
X1023366Y620268D03*
X1048766Y594868D03*
X1048766Y620268D03*
X1074166Y594868D03*
X1074166Y620268D03*
D11*
X1136570Y505400D03*
X1136570Y561400D03*
D12*
X1099820Y518400D03*
X1099820Y528400D03*
X1099820Y538400D03*
X1099820Y548400D03*
D11*
X1136570Y419040D03*
X1136570Y475040D03*
D12*
X1099820Y432040D03*
X1099820Y442040D03*
X1099820Y452040D03*
X1099820Y462040D03*
D13*
X990600Y478000D03*
D14*
X990600Y498000D03*
X990600Y518000D03*
X990600Y538000D03*
D15*
X546100Y465100D03*
D16*
X546100Y500100D03*
D17*
X640900Y483902D03*
X647400Y483902D03*
X653900Y483902D03*
X660400Y483902D03*
X666900Y483902D03*
X673400Y483902D03*
X679900Y483902D03*
X679900Y542258D03*
X673400Y542258D03*
X666900Y542258D03*
X660400Y542258D03*
X653900Y542258D03*
X647400Y542258D03*
X640900Y542258D03*
D10*
X647700Y419100D03*
X673100Y419100D03*
X698500Y419100D03*
X723900Y419100D03*
X749300Y419100D03*
X774700Y419100D03*
X800100Y419100D03*
X825500Y419100D03*
X929640Y419100D03*
X955040Y419100D03*
X980440Y419100D03*
D18*
X1076579Y432054D02*
X1099693Y432054D01*
X1076579Y432054D02*
X991235Y517398D01*
X1099693Y432054D02*
X1099820Y432040D01*
X991235Y517398D02*
X990600Y518000D01*
X1099693Y548513D02*
X1099693Y586740D01*
X1079246Y607187D01*
X1069467Y607187D01*
X1061466Y599186D01*
X1061466Y588518D01*
X991235Y518287D01*
X1099693Y548513D02*
X1099820Y548400D01*
X991235Y518287D02*
X990600Y518000D01*
X640080Y484505D02*
X544957Y484505D01*
X534289Y495173D01*
X534289Y537845D01*
X591185Y594741D01*
X640080Y484505D02*
X640900Y483902D01*
X591566Y594868D02*
X591185Y594741D01*
X679196Y566293D02*
X679196Y542290D01*
X679196Y566293D02*
X654304Y591185D01*
X654304Y600075D01*
X646303Y608076D01*
X637413Y608076D01*
X629412Y616077D01*
X629412Y624967D01*
X621411Y632968D01*
X586740Y632968D01*
X579628Y625856D01*
X579628Y607187D01*
X591185Y595630D01*
X679196Y542290D02*
X679900Y542258D01*
X591566Y594868D02*
X591185Y595630D01*
X794766Y594868D02*
X794766Y449834D01*
X825500Y419100D01*
X732536Y566293D02*
X679196Y566293D01*
X732536Y566293D02*
X757428Y591185D01*
X757428Y600075D01*
X765429Y608076D01*
X774319Y608076D01*
X782320Y616077D01*
X782320Y624967D01*
X790321Y632968D01*
X799211Y632968D01*
X807212Y624967D01*
X807212Y608076D01*
X794766Y595630D01*
X794766Y594868D01*
D19*
X679196Y483616D02*
X679196Y479171D01*
X665861Y465836D01*
X546735Y465836D01*
X679196Y483616D02*
X679900Y483902D01*
X546735Y465836D02*
X546100Y465100D01*
X693420Y595630D02*
X701421Y595630D01*
X713867Y608076D01*
X731647Y608076D01*
X743204Y619633D01*
X693420Y595630D02*
X693166Y594868D01*
X743204Y619633D02*
X743966Y620268D01*
X650748Y619633D02*
X642747Y619633D01*
X650748Y619633D02*
X663194Y607187D01*
X681863Y607187D01*
X692531Y596519D01*
X642747Y619633D02*
X642366Y620268D01*
X692531Y596519D02*
X693166Y594868D01*
X1095248Y442722D02*
X1099693Y442722D01*
X1095248Y442722D02*
X1044575Y493395D01*
X1044575Y524510D01*
X1059688Y539623D01*
X1073912Y539623D02*
X1098804Y539623D01*
X1073912Y539623D02*
X1059688Y539623D01*
X1098804Y539623D02*
X1099693Y538734D01*
X1099693Y442722D02*
X1099820Y442040D01*
X1099820Y538400D02*
X1099693Y538734D01*
X1073912Y539623D02*
X1073912Y594741D01*
X1074166Y594868D01*
X905002Y595630D02*
X897001Y595630D01*
X905002Y595630D02*
X917448Y608076D01*
X935228Y608076D01*
X946785Y619633D01*
X897001Y595630D02*
X896366Y594868D01*
X946785Y619633D02*
X947166Y620268D01*
X640080Y579628D02*
X640080Y542290D01*
X640080Y579628D02*
X629412Y590296D01*
X629412Y607187D01*
X616966Y619633D01*
X640080Y542290D02*
X640900Y542258D01*
X616966Y619633D02*
X616966Y620268D01*
X598297Y500507D02*
X546735Y500507D01*
X598297Y500507D02*
X640080Y542290D01*
X546735Y500507D02*
X546100Y500100D01*
X592074Y620522D02*
X616077Y620522D01*
X592074Y620522D02*
X591566Y620268D01*
X616077Y620522D02*
X616966Y620268D01*
D18*
X667639Y488950D02*
X667639Y484505D01*
X667639Y488950D02*
X670306Y491617D01*
X682752Y491617D01*
X711200Y463169D01*
X711200Y414274D01*
X725424Y400050D01*
X953008Y400050D01*
X967232Y414274D01*
X967232Y583184D01*
X960120Y590296D01*
X960120Y607187D01*
X972566Y619633D01*
X667639Y484505D02*
X666900Y483902D01*
X972566Y619633D02*
X972566Y620268D01*
X667639Y541401D02*
X667639Y512064D01*
X736981Y442722D01*
X736981Y414274D01*
X747649Y403606D01*
X939673Y403606D01*
X954786Y418719D01*
X667639Y541401D02*
X666900Y542258D01*
X954786Y418719D02*
X955040Y419100D01*
X808990Y418719D02*
X800100Y418719D01*
X808990Y418719D02*
X820547Y407162D01*
X831215Y407162D01*
X837438Y413385D01*
X837438Y585851D01*
X832993Y590296D01*
X832993Y607187D01*
X845439Y619633D01*
X800100Y419100D02*
X800100Y418719D01*
X845439Y619633D02*
X845566Y620268D01*
X749427Y557403D02*
X749427Y419608D01*
X749427Y557403D02*
X782320Y590296D01*
X782320Y607187D01*
X794766Y619633D01*
X749427Y419608D02*
X749300Y419100D01*
X794766Y619633D02*
X794766Y620268D01*
X1073023Y518287D02*
X1099693Y518287D01*
X1073023Y518287D02*
X1069467Y514731D01*
X1099693Y518287D02*
X1099820Y518400D01*
D20*
X1069467Y514731D03*
D18*
X1100582Y528066D02*
X1104138Y528066D01*
X1113028Y519176D01*
X1113028Y425831D01*
X1109472Y422275D01*
X1063244Y422275D01*
X997458Y488061D01*
X987679Y488061D01*
X977900Y497840D01*
X977900Y583184D01*
X985012Y590296D01*
X985012Y624967D01*
X973455Y636524D01*
X684530Y636524D01*
X668528Y620522D01*
X1099820Y528400D02*
X1100582Y528066D01*
X668528Y620522D02*
X667766Y620268D01*
X1100582Y461391D02*
X1104138Y461391D01*
X1109472Y456057D01*
X1109472Y427609D01*
X1107694Y425831D01*
X1075690Y425831D01*
X993013Y508508D01*
X986790Y508508D01*
X981456Y513842D01*
X981456Y560959D01*
X1010793Y590296D01*
X1010793Y607187D01*
X1023239Y619633D01*
X1099820Y462040D02*
X1100582Y461391D01*
X1023239Y619633D02*
X1023366Y620268D01*
M02*
