G04 EAGLE Gerber RS-274X export*
G75*
%MOMM*%
%FSLAX34Y34*%
%LPD*%
%INBottom Copper*%
%IPPOS*%
%AMOC8*
5,1,8,0,0,1.08239X$1,22.5*%
G01*
%ADD10C,1.879600*%
%ADD11R,1.308000X1.308000*%
%ADD12C,1.308000*%
%ADD13R,1.850000X1.850000*%
%ADD14C,1.850000*%
%ADD15C,0.203200*%
%ADD16C,1.500000*%
%ADD17C,0.254000*%


D10*
X591566Y594868D03*
X616966Y594868D03*
X642366Y594868D03*
X667766Y594868D03*
X693166Y594868D03*
X718566Y594868D03*
X743966Y594868D03*
X769366Y594868D03*
X794766Y594868D03*
X820166Y594868D03*
X845566Y594868D03*
X870966Y594868D03*
X896366Y594868D03*
X896366Y620268D03*
X870966Y620268D03*
X845566Y620268D03*
X820166Y620268D03*
X794766Y620268D03*
X769366Y620268D03*
X743966Y620268D03*
X718566Y620268D03*
X693166Y620268D03*
X667766Y620268D03*
X642366Y620268D03*
X616966Y620268D03*
X591566Y620268D03*
X921766Y594868D03*
X921766Y620268D03*
X947166Y594868D03*
X947166Y620268D03*
X972566Y594868D03*
X972566Y620268D03*
X997966Y594868D03*
X997966Y620268D03*
X1023366Y594868D03*
X1023366Y620268D03*
X1048766Y594868D03*
X1048766Y620268D03*
X1074166Y594868D03*
X1074166Y620268D03*
D11*
X965200Y376400D03*
D12*
X965200Y396400D03*
X965200Y416400D03*
X965200Y436400D03*
D13*
X546100Y465100D03*
D14*
X546100Y500100D03*
D10*
X647700Y520700D03*
X673100Y520700D03*
X698500Y520700D03*
X723900Y520700D03*
X749300Y520700D03*
X774700Y520700D03*
X800100Y520700D03*
X825500Y520700D03*
X914400Y520700D03*
X939800Y520700D03*
X965200Y520700D03*
D15*
X1082802Y550291D02*
X1082802Y430276D01*
X794766Y595630D02*
X785876Y595630D01*
X773430Y608076D01*
X688086Y608076D01*
X680085Y616077D01*
X680085Y624967D01*
X672084Y632968D01*
X637413Y632968D01*
X629412Y624967D01*
X629412Y615188D01*
X621411Y607187D01*
X603631Y607187D01*
X592074Y595630D01*
X794766Y595630D02*
X794766Y594868D01*
X592074Y595630D02*
X591566Y594868D01*
X861441Y416941D02*
X964565Y416941D01*
X861441Y416941D02*
X762762Y515620D01*
X762762Y526288D01*
X769874Y533400D01*
X812546Y533400D01*
X824992Y520954D01*
X964565Y416941D02*
X965200Y416400D01*
X825500Y520700D02*
X824992Y520954D01*
D16*
X1082802Y550291D03*
X1082802Y430276D03*
D17*
X783209Y520065D02*
X775208Y520065D01*
X783209Y520065D02*
X794766Y508508D01*
X901446Y508508D02*
X902335Y508508D01*
X901446Y508508D02*
X794766Y508508D01*
X902335Y508508D02*
X913892Y520065D01*
X775208Y520065D02*
X774700Y520700D01*
X913892Y520065D02*
X914400Y520700D01*
X964565Y444500D02*
X964565Y436499D01*
X964565Y444500D02*
X901446Y507619D01*
X964565Y436499D02*
X965200Y436400D01*
X901446Y507619D02*
X901446Y508508D01*
X828548Y619633D02*
X820547Y619633D01*
X828548Y619633D02*
X840994Y607187D01*
X884555Y607187D01*
X896112Y595630D01*
X820547Y619633D02*
X820166Y620268D01*
X896112Y595630D02*
X896366Y594868D01*
X938784Y619633D02*
X946785Y619633D01*
X938784Y619633D02*
X926338Y607187D01*
X907669Y607187D01*
X897001Y596519D01*
X946785Y619633D02*
X947166Y620268D01*
X897001Y596519D02*
X896366Y594868D01*
X989457Y619633D02*
X997458Y619633D01*
X989457Y619633D02*
X977900Y608076D01*
X958342Y608076D01*
X947674Y618744D01*
X997458Y619633D02*
X997966Y620268D01*
X947674Y618744D02*
X947166Y620268D01*
X1074801Y603631D02*
X1074801Y595630D01*
X1074801Y603631D02*
X1086358Y615188D01*
X1086358Y625856D01*
X1079246Y632968D01*
X1009904Y632968D01*
X998347Y621411D01*
X1074166Y594868D02*
X1074801Y595630D01*
X998347Y621411D02*
X997966Y620268D01*
X752094Y620522D02*
X744093Y620522D01*
X752094Y620522D02*
X764540Y632968D01*
X808101Y632968D01*
X819658Y621411D01*
X744093Y620522D02*
X743966Y620268D01*
X819658Y621411D02*
X820166Y620268D01*
X546735Y483616D02*
X546735Y465836D01*
X546735Y483616D02*
X629412Y566293D01*
X629412Y607187D01*
X641858Y619633D01*
X546735Y465836D02*
X546100Y465100D01*
X641858Y619633D02*
X642366Y620268D01*
X913892Y576961D02*
X913892Y521843D01*
X913892Y576961D02*
X897001Y593852D01*
X913892Y521843D02*
X914400Y520700D01*
X897001Y593852D02*
X896366Y594868D01*
X965454Y520065D02*
X965454Y449834D01*
X975233Y440055D01*
X975233Y412496D01*
X969010Y406273D01*
X665861Y406273D01*
X651637Y420497D01*
X965200Y520700D02*
X965454Y520065D01*
X591185Y612521D02*
X591185Y619633D01*
X591185Y612521D02*
X546735Y568071D01*
X546735Y500507D01*
X591185Y619633D02*
X591566Y620268D01*
X546735Y500507D02*
X546100Y500100D01*
D16*
X651637Y420497D03*
D15*
X724535Y520954D02*
X732536Y520954D01*
X790321Y578739D01*
X803656Y578739D01*
X819658Y594741D01*
X724535Y520954D02*
X723900Y520700D01*
X819658Y594741D02*
X820166Y594868D01*
X706755Y520954D02*
X698754Y520954D01*
X706755Y520954D02*
X768096Y582295D01*
X799211Y582295D01*
X808101Y591185D01*
X808101Y600075D01*
X815213Y607187D01*
X833882Y607187D01*
X845439Y595630D01*
X698754Y520954D02*
X698500Y520700D01*
X845566Y594868D02*
X845439Y595630D01*
X720979Y480949D02*
X685419Y516509D01*
X685419Y584962D01*
X680085Y590296D01*
X680085Y608076D01*
X668528Y619633D01*
X667766Y620268D01*
D16*
X720979Y480949D03*
D15*
X965454Y383159D02*
X965454Y376936D01*
X965454Y383159D02*
X1061466Y479171D01*
X1061466Y607187D01*
X1073912Y619633D01*
X965454Y376936D02*
X965200Y376400D01*
X1073912Y619633D02*
X1074166Y620268D01*
M02*
