G04 EAGLE Gerber RS-274X export*
G75*
%MOMM*%
%FSLAX34Y34*%
%LPD*%
%INBottom Copper*%
%IPPOS*%
%AMOC8*
5,1,8,0,0,1.08239X$1,22.5*%
G01*
%ADD10C,1.879600*%
%ADD11R,1.308000X1.308000*%
%ADD12C,1.308000*%
%ADD13R,1.850000X1.850000*%
%ADD14C,1.850000*%
%ADD15C,0.203200*%
%ADD16C,0.254000*%
%ADD17C,1.500000*%


D10*
X591566Y594868D03*
X616966Y594868D03*
X642366Y594868D03*
X667766Y594868D03*
X693166Y594868D03*
X718566Y594868D03*
X743966Y594868D03*
X769366Y594868D03*
X794766Y594868D03*
X820166Y594868D03*
X845566Y594868D03*
X870966Y594868D03*
X896366Y594868D03*
X896366Y620268D03*
X870966Y620268D03*
X845566Y620268D03*
X820166Y620268D03*
X794766Y620268D03*
X769366Y620268D03*
X743966Y620268D03*
X718566Y620268D03*
X693166Y620268D03*
X667766Y620268D03*
X642366Y620268D03*
X616966Y620268D03*
X591566Y620268D03*
X921766Y594868D03*
X921766Y620268D03*
X947166Y594868D03*
X947166Y620268D03*
X972566Y594868D03*
X972566Y620268D03*
X997966Y594868D03*
X997966Y620268D03*
X1023366Y594868D03*
X1023366Y620268D03*
X1048766Y594868D03*
X1048766Y620268D03*
X1074166Y594868D03*
X1074166Y620268D03*
D11*
X990600Y478000D03*
D12*
X990600Y498000D03*
X990600Y518000D03*
X990600Y538000D03*
D13*
X546100Y465100D03*
D14*
X546100Y500100D03*
D10*
X647700Y419100D03*
X673100Y419100D03*
X698500Y419100D03*
X723900Y419100D03*
X749300Y419100D03*
X774700Y419100D03*
X800100Y419100D03*
X825500Y419100D03*
X929640Y419100D03*
X955040Y419100D03*
X980440Y419100D03*
D15*
X990346Y511175D02*
X990346Y517398D01*
X990346Y511175D02*
X942340Y463169D01*
X942340Y414274D01*
X935228Y407162D01*
X837438Y407162D01*
X825500Y419100D01*
X990346Y517398D02*
X990600Y518000D01*
D16*
X819658Y619633D02*
X811657Y619633D01*
X800100Y608076D01*
X755650Y608076D01*
X744093Y619633D01*
X819658Y619633D02*
X820166Y620268D01*
X744093Y619633D02*
X743966Y620268D01*
X546735Y483616D02*
X546735Y465836D01*
X546735Y483616D02*
X629412Y566293D01*
X629412Y607187D01*
X641858Y619633D01*
X546735Y465836D02*
X546100Y465100D01*
X641858Y619633D02*
X642366Y620268D01*
X775208Y419608D02*
X783209Y419608D01*
X795655Y432054D01*
X916559Y432054D01*
X929005Y419608D01*
X775208Y419608D02*
X774700Y419100D01*
X929005Y419608D02*
X929640Y419100D01*
X990346Y538734D02*
X990346Y584962D01*
X985012Y590296D01*
X985012Y607187D01*
X997458Y619633D01*
X990346Y538734D02*
X990600Y538000D01*
X997458Y619633D02*
X997966Y620268D01*
X984123Y608076D02*
X959231Y608076D01*
X947674Y619633D01*
X984123Y608076D02*
X985012Y607187D01*
X947674Y619633D02*
X947166Y620268D01*
X1065911Y595630D02*
X1073912Y595630D01*
X1065911Y595630D02*
X1053465Y608076D01*
X1009015Y608076D01*
X998347Y618744D01*
X1073912Y595630D02*
X1074166Y594868D01*
X998347Y618744D02*
X997966Y620268D01*
X917448Y464058D02*
X917448Y432943D01*
X917448Y464058D02*
X990346Y536956D01*
X917448Y432943D02*
X916559Y432054D01*
X990346Y536956D02*
X990600Y538000D01*
X829437Y618744D02*
X820547Y618744D01*
X829437Y618744D02*
X840994Y607187D01*
X884555Y607187D01*
X896112Y595630D01*
X820547Y618744D02*
X820166Y620268D01*
X896112Y595630D02*
X896366Y594868D01*
X972566Y418719D02*
X979678Y418719D01*
X972566Y418719D02*
X956564Y402717D01*
X585851Y402717D01*
X533400Y455168D01*
X533400Y487172D01*
X545846Y499618D01*
X979678Y418719D02*
X980440Y419100D01*
X546100Y500100D02*
X545846Y499618D01*
D15*
X724535Y473837D02*
X724535Y419608D01*
X724535Y473837D02*
X845566Y594868D01*
X724535Y419608D02*
X723900Y419100D01*
X698754Y419608D02*
X698754Y473837D01*
X819658Y594741D01*
X698754Y419608D02*
X698500Y419100D01*
X819658Y594741D02*
X820166Y594868D01*
X681863Y418719D02*
X673862Y418719D01*
X681863Y418719D02*
X693420Y407162D01*
X728980Y407162D01*
X736981Y415163D01*
X736981Y461391D01*
X870331Y594741D01*
X673862Y418719D02*
X673100Y419100D01*
X870331Y594741D02*
X870966Y594868D01*
X648081Y524510D02*
X648081Y419608D01*
X648081Y524510D02*
X718312Y594741D01*
X648081Y419608D02*
X647700Y419100D01*
X718312Y594741D02*
X718566Y594868D01*
X1069467Y558292D02*
X1069467Y514731D01*
X1069467Y558292D02*
X1089914Y578739D01*
X1089914Y621411D01*
X1078357Y632968D01*
X705866Y632968D01*
X693166Y620268D01*
D17*
X1069467Y514731D03*
D15*
X991235Y485394D02*
X991235Y478282D01*
X991235Y485394D02*
X1086358Y580517D01*
X1086358Y608076D01*
X1074166Y620268D01*
X991235Y478282D02*
X990600Y478000D01*
M02*
