G04 EAGLE Gerber RS-274X export*
G75*
%MOMM*%
%FSLAX34Y34*%
%LPD*%
%INTop Copper*%
%IPPOS*%
%AMOC8*
5,1,8,0,0,1.08239X$1,22.5*%
G01*
%ADD10C,1.879600*%
%ADD11R,2.000000X1.200000*%
%ADD12R,1.350000X0.600000*%
%ADD13R,1.308000X1.308000*%
%ADD14C,1.308000*%
%ADD15R,1.850000X1.850000*%
%ADD16C,1.850000*%
%ADD17R,0.304800X0.990600*%
%ADD18C,0.203200*%
%ADD19C,1.500000*%
%ADD20C,0.254000*%


D10*
X591566Y594868D03*
X616966Y594868D03*
X642366Y594868D03*
X667766Y594868D03*
X693166Y594868D03*
X718566Y594868D03*
X743966Y594868D03*
X769366Y594868D03*
X794766Y594868D03*
X820166Y594868D03*
X845566Y594868D03*
X870966Y594868D03*
X896366Y594868D03*
X896366Y620268D03*
X870966Y620268D03*
X845566Y620268D03*
X820166Y620268D03*
X794766Y620268D03*
X769366Y620268D03*
X743966Y620268D03*
X718566Y620268D03*
X693166Y620268D03*
X667766Y620268D03*
X642366Y620268D03*
X616966Y620268D03*
X591566Y620268D03*
X921766Y594868D03*
X921766Y620268D03*
X947166Y594868D03*
X947166Y620268D03*
X972566Y594868D03*
X972566Y620268D03*
X997966Y594868D03*
X997966Y620268D03*
X1023366Y594868D03*
X1023366Y620268D03*
X1048766Y594868D03*
X1048766Y620268D03*
X1074166Y594868D03*
X1074166Y620268D03*
D11*
X1136570Y505400D03*
X1136570Y561400D03*
D12*
X1099820Y518400D03*
X1099820Y528400D03*
X1099820Y538400D03*
X1099820Y548400D03*
D11*
X1136570Y419040D03*
X1136570Y475040D03*
D12*
X1099820Y432040D03*
X1099820Y442040D03*
X1099820Y452040D03*
X1099820Y462040D03*
D13*
X965200Y376400D03*
D14*
X965200Y396400D03*
X965200Y416400D03*
X965200Y436400D03*
D15*
X546100Y465100D03*
D16*
X546100Y500100D03*
D17*
X640900Y377222D03*
X647400Y377222D03*
X653900Y377222D03*
X660400Y377222D03*
X666900Y377222D03*
X673400Y377222D03*
X679900Y377222D03*
X679900Y435578D03*
X673400Y435578D03*
X666900Y435578D03*
X660400Y435578D03*
X653900Y435578D03*
X647400Y435578D03*
X640900Y435578D03*
D10*
X647700Y520700D03*
X673100Y520700D03*
X698500Y520700D03*
X723900Y520700D03*
X749300Y520700D03*
X774700Y520700D03*
X800100Y520700D03*
X825500Y520700D03*
X914400Y520700D03*
X939800Y520700D03*
X965200Y520700D03*
D18*
X979678Y431165D02*
X1082802Y431165D01*
X1099693Y431165D01*
X979678Y431165D02*
X965454Y416941D01*
X1099693Y431165D02*
X1099820Y432040D01*
X965454Y416941D02*
X965200Y416400D01*
X1084580Y548513D02*
X1099693Y548513D01*
X1084580Y548513D02*
X1082802Y550291D01*
X1099693Y548513D02*
X1099820Y548400D01*
X1082802Y431165D02*
X1082802Y430276D01*
X794766Y532511D02*
X794766Y594868D01*
X794766Y532511D02*
X787654Y525399D01*
X787654Y515620D01*
X794766Y508508D01*
X813435Y508508D01*
X824992Y520065D01*
X825500Y520700D01*
X640080Y393827D02*
X640080Y377825D01*
X640080Y393827D02*
X545846Y488061D01*
X541401Y488061D01*
X534289Y495173D01*
X534289Y537845D01*
X591185Y594741D01*
X640080Y377825D02*
X640900Y377222D01*
X591185Y594741D02*
X591566Y594868D01*
D19*
X1082802Y550291D03*
X1082802Y430276D03*
D20*
X1099693Y441833D02*
X970788Y441833D01*
X965454Y436499D01*
X1099693Y441833D02*
X1099820Y442040D01*
X965454Y436499D02*
X965200Y436400D01*
X679196Y376936D02*
X679196Y372491D01*
X675640Y368935D01*
X638302Y368935D01*
X546735Y460502D01*
X546735Y464947D01*
X679196Y376936D02*
X679900Y377222D01*
X546735Y464947D02*
X546100Y465100D01*
X693420Y595630D02*
X701421Y595630D01*
X713867Y608076D01*
X731647Y608076D01*
X743204Y619633D01*
X693420Y595630D02*
X693166Y594868D01*
X743204Y619633D02*
X743966Y620268D01*
X650748Y619633D02*
X642747Y619633D01*
X650748Y619633D02*
X663194Y607187D01*
X681863Y607187D01*
X692531Y596519D01*
X642747Y619633D02*
X642366Y620268D01*
X692531Y596519D02*
X693166Y594868D01*
X1078357Y538734D02*
X1099693Y538734D01*
X1078357Y538734D02*
X1071245Y545846D01*
X1071245Y592074D01*
X1073912Y594741D01*
X1099693Y538734D02*
X1099820Y538400D01*
X1073912Y594741D02*
X1074166Y594868D01*
X616966Y620522D02*
X592074Y620522D01*
X591566Y620268D01*
X616966Y620268D02*
X616966Y620522D01*
X610743Y435610D02*
X640080Y435610D01*
X610743Y435610D02*
X546735Y499618D01*
X640080Y435610D02*
X640900Y435578D01*
X546735Y499618D02*
X546100Y500100D01*
X640969Y431165D02*
X651637Y420497D01*
X640969Y431165D02*
X640969Y434721D01*
X640900Y435578D01*
D19*
X651637Y420497D03*
D18*
X667639Y412496D02*
X667639Y377825D01*
X667639Y412496D02*
X709422Y454279D01*
X709422Y485394D01*
X721868Y497840D01*
X934339Y497840D01*
X953008Y516509D01*
X953008Y583184D01*
X960120Y590296D01*
X960120Y607187D01*
X972566Y619633D01*
X667639Y377825D02*
X666900Y377222D01*
X972566Y619633D02*
X972566Y620268D01*
X667639Y448945D02*
X667639Y435610D01*
X667639Y448945D02*
X720090Y501396D01*
X921004Y501396D01*
X939673Y520065D01*
X667639Y435610D02*
X666900Y435578D01*
X939673Y520065D02*
X939800Y520700D01*
X800100Y520700D02*
X800100Y557403D01*
X832993Y590296D01*
X832993Y607187D01*
X845439Y619633D01*
X845566Y620268D01*
X749427Y557403D02*
X749427Y520954D01*
X749427Y557403D02*
X782320Y590296D01*
X782320Y607187D01*
X794766Y619633D01*
X749427Y520954D02*
X749300Y520700D01*
X794766Y619633D02*
X794766Y620268D01*
X681863Y520065D02*
X673862Y520065D01*
X681863Y520065D02*
X696976Y504952D01*
X826770Y504952D01*
X870331Y548513D01*
X870331Y594741D01*
X673862Y520065D02*
X673100Y520700D01*
X870331Y594741D02*
X870966Y594868D01*
X648081Y524510D02*
X648081Y520954D01*
X648081Y524510D02*
X718312Y594741D01*
X648081Y520954D02*
X647700Y520700D01*
X718312Y594741D02*
X718566Y594868D01*
X1100582Y519176D02*
X1104138Y519176D01*
X1109472Y524510D01*
X1109472Y576961D01*
X1078357Y608076D01*
X1043686Y608076D01*
X1035685Y616077D01*
X1035685Y624967D01*
X1027684Y632968D01*
X705866Y632968D01*
X693166Y620268D01*
X1099820Y518400D02*
X1100582Y519176D01*
X1099693Y528066D02*
X1096137Y528066D01*
X1089914Y521843D01*
X1089914Y489839D01*
X1109472Y470281D01*
X1109472Y427609D01*
X1089025Y407162D01*
X794766Y407162D01*
X720979Y480949D01*
X1099693Y528066D02*
X1099820Y528400D01*
D19*
X720979Y480949D03*
D18*
X1099693Y474726D02*
X1099693Y462280D01*
X1099693Y474726D02*
X1035685Y538734D01*
X1035685Y608076D01*
X1024128Y619633D01*
X1099693Y462280D02*
X1099820Y462040D01*
X1024128Y619633D02*
X1023366Y620268D01*
M02*
