G04 EAGLE Gerber RS-274X export*
G75*
%MOMM*%
%FSLAX34Y34*%
%LPD*%
%INTop Copper*%
%IPPOS*%
%AMOC8*
5,1,8,0,0,1.08239X$1,22.5*%
G01*
%ADD10C,1.879600*%
%ADD11R,2.000000X1.200000*%
%ADD12R,1.350000X0.600000*%
%ADD13R,1.308000X1.308000*%
%ADD14C,1.308000*%
%ADD15R,1.850000X1.850000*%
%ADD16C,1.850000*%
%ADD17R,0.304800X0.990600*%
%ADD18C,0.203200*%
%ADD19C,1.500000*%


D10*
X591566Y594868D03*
X616966Y594868D03*
X642366Y594868D03*
X667766Y594868D03*
X693166Y594868D03*
X718566Y594868D03*
X743966Y594868D03*
X769366Y594868D03*
X794766Y594868D03*
X820166Y594868D03*
X845566Y594868D03*
X870966Y594868D03*
X896366Y594868D03*
X896366Y620268D03*
X870966Y620268D03*
X845566Y620268D03*
X820166Y620268D03*
X794766Y620268D03*
X769366Y620268D03*
X743966Y620268D03*
X718566Y620268D03*
X693166Y620268D03*
X667766Y620268D03*
X642366Y620268D03*
X616966Y620268D03*
X591566Y620268D03*
X921766Y594868D03*
X921766Y620268D03*
X947166Y594868D03*
X947166Y620268D03*
X972566Y594868D03*
X972566Y620268D03*
X997966Y594868D03*
X997966Y620268D03*
X1023366Y594868D03*
X1023366Y620268D03*
X1048766Y594868D03*
X1048766Y620268D03*
X1074166Y594868D03*
X1074166Y620268D03*
D11*
X1136570Y505400D03*
X1136570Y561400D03*
D12*
X1099820Y518400D03*
X1099820Y528400D03*
X1099820Y538400D03*
X1099820Y548400D03*
D11*
X1136570Y419040D03*
X1136570Y475040D03*
D12*
X1099820Y432040D03*
X1099820Y442040D03*
X1099820Y452040D03*
X1099820Y462040D03*
D13*
X965200Y376400D03*
D14*
X965200Y396400D03*
X965200Y416400D03*
X965200Y436400D03*
D15*
X546100Y465100D03*
D16*
X546100Y500100D03*
D17*
X640900Y377222D03*
X647400Y377222D03*
X653900Y377222D03*
X660400Y377222D03*
X666900Y377222D03*
X673400Y377222D03*
X679900Y377222D03*
X679900Y435578D03*
X673400Y435578D03*
X666900Y435578D03*
X660400Y435578D03*
X653900Y435578D03*
X647400Y435578D03*
X640900Y435578D03*
D10*
X647700Y520700D03*
X673100Y520700D03*
X698500Y520700D03*
X723900Y520700D03*
X749300Y520700D03*
X774700Y520700D03*
X800100Y520700D03*
X825500Y520700D03*
X914400Y520700D03*
X939800Y520700D03*
X965200Y520700D03*
D18*
X977900Y430276D02*
X1098804Y430276D01*
X977900Y430276D02*
X965454Y417830D01*
X1098804Y430276D02*
X1099820Y432040D01*
X965454Y417830D02*
X965200Y416400D01*
X1095248Y547624D02*
X1098804Y547624D01*
X1095248Y547624D02*
X1070356Y522732D01*
X1098804Y547624D02*
X1099820Y548400D01*
X794766Y533400D02*
X794766Y594868D01*
X794766Y533400D02*
X787654Y526288D01*
X787654Y515620D01*
X794766Y508508D01*
X814324Y508508D01*
X824992Y519176D01*
X825500Y520700D01*
X640080Y394716D02*
X640080Y378714D01*
X640080Y394716D02*
X547624Y487172D01*
X542290Y487172D01*
X533400Y496062D01*
X533400Y536956D01*
X572516Y576072D02*
X590296Y593852D01*
X572516Y576072D02*
X533400Y536956D01*
X640080Y378714D02*
X640900Y377222D01*
X590296Y593852D02*
X591566Y594868D01*
X780542Y508508D02*
X787654Y515620D01*
X780542Y508508D02*
X640080Y508508D01*
X572516Y576072D01*
D19*
X1070356Y522732D03*
D18*
X1100582Y442722D02*
X1104138Y442722D01*
X1109472Y448056D01*
X1109472Y494284D01*
X1089914Y513842D01*
X1089914Y533400D01*
X1093470Y536956D01*
X1098804Y536956D01*
X1100582Y442722D02*
X1099820Y442040D01*
X1098804Y536956D02*
X1099820Y538400D01*
X1075690Y586740D02*
X1075690Y593852D01*
X1075690Y586740D02*
X1109472Y552958D01*
X1109472Y544068D01*
X1104138Y538734D01*
X1100582Y538734D01*
X1075690Y593852D02*
X1074166Y594868D01*
X1099820Y538400D02*
X1100582Y538734D01*
X905002Y595630D02*
X897890Y595630D01*
X905002Y595630D02*
X917448Y608076D01*
X935228Y608076D01*
X945896Y618744D01*
X897890Y595630D02*
X896366Y594868D01*
X945896Y618744D02*
X947166Y620268D01*
X679196Y376936D02*
X679196Y371602D01*
X675640Y368046D01*
X638302Y368046D01*
X547624Y458724D01*
X547624Y464058D01*
X679196Y376936D02*
X679900Y377222D01*
X547624Y464058D02*
X546100Y465100D01*
X643636Y618744D02*
X650748Y618744D01*
X661416Y608076D01*
X679196Y608076D01*
X691642Y595630D01*
X643636Y618744D02*
X642366Y620268D01*
X691642Y595630D02*
X693166Y594868D01*
X734314Y618744D02*
X743204Y618744D01*
X734314Y618744D02*
X723646Y608076D01*
X705866Y608076D01*
X693420Y595630D01*
X743204Y618744D02*
X743966Y620268D01*
X693420Y595630D02*
X693166Y594868D01*
X812546Y620522D02*
X819658Y620522D01*
X812546Y620522D02*
X800100Y632968D01*
X757428Y632968D01*
X744982Y620522D01*
X819658Y620522D02*
X820166Y620268D01*
X744982Y620522D02*
X743966Y620268D01*
X887222Y595630D02*
X896112Y595630D01*
X887222Y595630D02*
X874776Y608076D01*
X865886Y608076D01*
X858774Y615188D01*
X858774Y624078D01*
X849884Y632968D01*
X833882Y632968D01*
X821436Y620522D01*
X896112Y595630D02*
X896366Y594868D01*
X821436Y620522D02*
X820166Y620268D01*
X616966Y620522D02*
X592074Y620522D01*
X591566Y620268D01*
X616966Y620268D02*
X616966Y620522D01*
X611632Y435610D02*
X640080Y435610D01*
X611632Y435610D02*
X547624Y499618D01*
X640080Y435610D02*
X640900Y435578D01*
X547624Y499618D02*
X546100Y500100D01*
X956564Y520954D02*
X963676Y520954D01*
X956564Y520954D02*
X944118Y533400D01*
X855218Y533400D01*
X823214Y501396D01*
X702310Y501396D01*
X641858Y440944D01*
X641858Y435610D01*
X963676Y520954D02*
X965200Y520700D01*
X641858Y435610D02*
X640900Y435578D01*
X666750Y382270D02*
X666750Y378714D01*
X666750Y382270D02*
X778764Y494284D01*
X956564Y494284D01*
X985012Y522732D01*
X985012Y606298D01*
X972566Y618744D01*
X666750Y378714D02*
X666900Y377222D01*
X972566Y618744D02*
X972566Y620268D01*
X666750Y439166D02*
X666750Y435610D01*
X666750Y439166D02*
X725424Y497840D01*
X917448Y497840D01*
X938784Y519176D01*
X666900Y435578D02*
X666750Y435610D01*
X938784Y519176D02*
X939800Y520700D01*
X800100Y520700D02*
X800100Y556514D01*
X832104Y588518D01*
X832104Y606298D01*
X844550Y618744D01*
X845566Y620268D01*
X750316Y558292D02*
X750316Y520954D01*
X750316Y558292D02*
X782320Y590296D01*
X782320Y606298D01*
X794766Y618744D01*
X750316Y520954D02*
X749300Y520700D01*
X794766Y618744D02*
X794766Y620268D01*
X648970Y524510D02*
X648970Y520954D01*
X648970Y524510D02*
X718312Y593852D01*
X648970Y520954D02*
X647700Y520700D01*
X718312Y593852D02*
X718566Y594868D01*
X1100582Y519176D02*
X1111250Y519176D01*
X1118362Y526288D01*
X1100582Y519176D02*
X1099820Y518400D01*
D19*
X1118362Y526288D03*
D18*
X1105916Y529844D02*
X1100582Y529844D01*
X1105916Y529844D02*
X1113028Y536956D01*
X1113028Y572516D01*
X1086358Y599186D01*
X1086358Y600964D01*
X1079246Y608076D01*
X1043686Y608076D01*
X1036574Y615188D01*
X1036574Y624078D01*
X1024128Y636524D01*
X684530Y636524D01*
X668528Y620522D01*
X1099820Y528400D02*
X1100582Y529844D01*
X668528Y620522D02*
X667766Y620268D01*
X1098804Y478282D02*
X1098804Y462280D01*
X1098804Y478282D02*
X1036574Y540512D01*
X1036574Y606298D01*
X1024128Y618744D01*
X1098804Y462280D02*
X1099820Y462040D01*
X1024128Y618744D02*
X1023366Y620268D01*
M02*
