G04 EAGLE Gerber RS-274X export*
G75*
%MOMM*%
%FSLAX34Y34*%
%LPD*%
%IN*%
%IPPOS*%
%AMOC8*
5,1,8,0,0,1.08239X$1,22.5*%
G01*
%ADD10C,0.254000*%


D10*
X506730Y378236D02*
X506730Y378236D01*
X506777Y375130D01*
X507095Y372040D01*
X507680Y368990D01*
X508529Y366002D01*
X509636Y363100D01*
X510991Y360305D01*
X512584Y357638D01*
X514404Y355121D01*
X516437Y352772D01*
X518666Y350609D01*
X521075Y348649D01*
X523646Y346906D01*
X526360Y345394D01*
X529194Y344124D01*
X532129Y343106D01*
X535141Y342347D01*
X538208Y341854D01*
X541306Y341630D01*
X1125032Y341630D01*
X1127978Y341757D01*
X1130948Y342144D01*
X1133872Y342788D01*
X1136729Y343685D01*
X1139496Y344827D01*
X1142154Y346206D01*
X1144682Y347812D01*
X1147060Y349631D01*
X1149270Y351651D01*
X1151296Y353856D01*
X1153122Y356229D01*
X1154734Y358753D01*
X1156120Y361407D01*
X1157269Y364172D01*
X1158174Y367026D01*
X1158825Y369949D01*
X1159220Y372917D01*
X1159355Y375908D01*
X1159666Y614518D01*
X1159666Y614575D01*
X1159536Y617528D01*
X1159149Y620459D01*
X1158509Y623345D01*
X1157619Y626163D01*
X1156487Y628894D01*
X1155122Y631515D01*
X1153533Y634008D01*
X1151733Y636352D01*
X1149735Y638531D01*
X1147555Y640528D01*
X1145209Y642326D01*
X1142716Y643914D01*
X1140094Y645278D01*
X1137363Y646408D01*
X1134543Y647296D01*
X1131657Y647935D01*
X1128727Y648320D01*
X1125773Y648448D01*
X539931Y648222D01*
X538221Y648177D01*
X535335Y647902D01*
X532485Y647375D01*
X529691Y646603D01*
X526975Y645589D01*
X524358Y644343D01*
X521860Y642874D01*
X519499Y641192D01*
X517293Y639311D01*
X515260Y637245D01*
X513415Y635010D01*
X511772Y632622D01*
X510343Y630101D01*
X509139Y627464D01*
X508169Y624732D01*
X507442Y621926D01*
X506961Y619068D01*
X506732Y616178D01*
X506730Y378236D01*
X559054Y607777D02*
X558975Y606673D01*
X558818Y605577D01*
X558582Y604496D01*
X558270Y603434D01*
X557884Y602397D01*
X557424Y601390D01*
X556894Y600419D01*
X556295Y599488D01*
X555632Y598602D01*
X554907Y597765D01*
X554125Y596983D01*
X553288Y596258D01*
X552402Y595595D01*
X551471Y594996D01*
X550500Y594466D01*
X549493Y594006D01*
X548456Y593620D01*
X547394Y593308D01*
X546313Y593072D01*
X545217Y592915D01*
X544113Y592836D01*
X543007Y592836D01*
X541903Y592915D01*
X540807Y593072D01*
X539726Y593308D01*
X538664Y593620D01*
X537627Y594006D01*
X536620Y594466D01*
X535649Y594996D01*
X534718Y595595D01*
X533832Y596258D01*
X532995Y596983D01*
X532213Y597765D01*
X531488Y598602D01*
X530825Y599488D01*
X530226Y600419D01*
X529696Y601390D01*
X529236Y602397D01*
X528850Y603434D01*
X528538Y604496D01*
X528302Y605577D01*
X528145Y606673D01*
X528066Y607777D01*
X528066Y608883D01*
X528145Y609987D01*
X528302Y611083D01*
X528538Y612164D01*
X528850Y613226D01*
X529236Y614263D01*
X529696Y615270D01*
X530226Y616241D01*
X530825Y617172D01*
X531488Y618058D01*
X532213Y618895D01*
X532995Y619677D01*
X533832Y620402D01*
X534718Y621065D01*
X535649Y621664D01*
X536620Y622194D01*
X537627Y622654D01*
X538664Y623040D01*
X539726Y623352D01*
X540807Y623588D01*
X541903Y623745D01*
X543007Y623824D01*
X544113Y623824D01*
X545217Y623745D01*
X546313Y623588D01*
X547394Y623352D01*
X548456Y623040D01*
X549493Y622654D01*
X550500Y622194D01*
X551471Y621664D01*
X552402Y621065D01*
X553288Y620402D01*
X554125Y619677D01*
X554907Y618895D01*
X555632Y618058D01*
X556295Y617172D01*
X556894Y616241D01*
X557424Y615270D01*
X557884Y614263D01*
X558270Y613226D01*
X558582Y612164D01*
X558818Y611083D01*
X558975Y609987D01*
X559054Y608883D01*
X559054Y607777D01*
X557784Y376637D02*
X557705Y375533D01*
X557548Y374437D01*
X557312Y373356D01*
X557000Y372294D01*
X556614Y371257D01*
X556154Y370250D01*
X555624Y369279D01*
X555025Y368348D01*
X554362Y367462D01*
X553637Y366625D01*
X552855Y365843D01*
X552018Y365118D01*
X551132Y364455D01*
X550201Y363856D01*
X549230Y363326D01*
X548223Y362866D01*
X547186Y362480D01*
X546124Y362168D01*
X545043Y361932D01*
X543947Y361775D01*
X542843Y361696D01*
X541737Y361696D01*
X540633Y361775D01*
X539537Y361932D01*
X538456Y362168D01*
X537394Y362480D01*
X536357Y362866D01*
X535350Y363326D01*
X534379Y363856D01*
X533448Y364455D01*
X532562Y365118D01*
X531725Y365843D01*
X530943Y366625D01*
X530218Y367462D01*
X529555Y368348D01*
X528956Y369279D01*
X528426Y370250D01*
X527966Y371257D01*
X527580Y372294D01*
X527268Y373356D01*
X527032Y374437D01*
X526875Y375533D01*
X526796Y376637D01*
X526796Y377743D01*
X526875Y378847D01*
X527032Y379943D01*
X527268Y381024D01*
X527580Y382086D01*
X527966Y383123D01*
X528426Y384130D01*
X528956Y385101D01*
X529555Y386032D01*
X530218Y386918D01*
X530943Y387755D01*
X531725Y388537D01*
X532562Y389262D01*
X533448Y389925D01*
X534379Y390524D01*
X535350Y391054D01*
X536357Y391514D01*
X537394Y391900D01*
X538456Y392212D01*
X539537Y392448D01*
X540633Y392605D01*
X541737Y392684D01*
X542843Y392684D01*
X543947Y392605D01*
X545043Y392448D01*
X546124Y392212D01*
X547186Y391900D01*
X548223Y391514D01*
X549230Y391054D01*
X550201Y390524D01*
X551132Y389925D01*
X552018Y389262D01*
X552855Y388537D01*
X553637Y387755D01*
X554362Y386918D01*
X555025Y386032D01*
X555624Y385101D01*
X556154Y384130D01*
X556614Y383123D01*
X557000Y382086D01*
X557312Y381024D01*
X557548Y379943D01*
X557705Y378847D01*
X557784Y377743D01*
X557784Y376637D01*
X1138174Y607777D02*
X1138095Y606673D01*
X1137938Y605577D01*
X1137702Y604496D01*
X1137390Y603434D01*
X1137004Y602397D01*
X1136544Y601390D01*
X1136014Y600419D01*
X1135415Y599488D01*
X1134752Y598602D01*
X1134027Y597765D01*
X1133245Y596983D01*
X1132408Y596258D01*
X1131522Y595595D01*
X1130591Y594996D01*
X1129620Y594466D01*
X1128613Y594006D01*
X1127576Y593620D01*
X1126514Y593308D01*
X1125433Y593072D01*
X1124337Y592915D01*
X1123233Y592836D01*
X1122127Y592836D01*
X1121023Y592915D01*
X1119927Y593072D01*
X1118846Y593308D01*
X1117784Y593620D01*
X1116747Y594006D01*
X1115740Y594466D01*
X1114769Y594996D01*
X1113838Y595595D01*
X1112952Y596258D01*
X1112115Y596983D01*
X1111333Y597765D01*
X1110608Y598602D01*
X1109945Y599488D01*
X1109346Y600419D01*
X1108816Y601390D01*
X1108356Y602397D01*
X1107970Y603434D01*
X1107658Y604496D01*
X1107422Y605577D01*
X1107265Y606673D01*
X1107186Y607777D01*
X1107186Y608883D01*
X1107265Y609987D01*
X1107422Y611083D01*
X1107658Y612164D01*
X1107970Y613226D01*
X1108356Y614263D01*
X1108816Y615270D01*
X1109346Y616241D01*
X1109945Y617172D01*
X1110608Y618058D01*
X1111333Y618895D01*
X1112115Y619677D01*
X1112952Y620402D01*
X1113838Y621065D01*
X1114769Y621664D01*
X1115740Y622194D01*
X1116747Y622654D01*
X1117784Y623040D01*
X1118846Y623352D01*
X1119927Y623588D01*
X1121023Y623745D01*
X1122127Y623824D01*
X1123233Y623824D01*
X1124337Y623745D01*
X1125433Y623588D01*
X1126514Y623352D01*
X1127576Y623040D01*
X1128613Y622654D01*
X1129620Y622194D01*
X1130591Y621664D01*
X1131522Y621065D01*
X1132408Y620402D01*
X1133245Y619677D01*
X1134027Y618895D01*
X1134752Y618058D01*
X1135415Y617172D01*
X1136014Y616241D01*
X1136544Y615270D01*
X1137004Y614263D01*
X1137390Y613226D01*
X1137702Y612164D01*
X1137938Y611083D01*
X1138095Y609987D01*
X1138174Y608883D01*
X1138174Y607777D01*
X1138174Y377907D02*
X1138095Y376803D01*
X1137938Y375707D01*
X1137702Y374626D01*
X1137390Y373564D01*
X1137004Y372527D01*
X1136544Y371520D01*
X1136014Y370549D01*
X1135415Y369618D01*
X1134752Y368732D01*
X1134027Y367895D01*
X1133245Y367113D01*
X1132408Y366388D01*
X1131522Y365725D01*
X1130591Y365126D01*
X1129620Y364596D01*
X1128613Y364136D01*
X1127576Y363750D01*
X1126514Y363438D01*
X1125433Y363202D01*
X1124337Y363045D01*
X1123233Y362966D01*
X1122127Y362966D01*
X1121023Y363045D01*
X1119927Y363202D01*
X1118846Y363438D01*
X1117784Y363750D01*
X1116747Y364136D01*
X1115740Y364596D01*
X1114769Y365126D01*
X1113838Y365725D01*
X1112952Y366388D01*
X1112115Y367113D01*
X1111333Y367895D01*
X1110608Y368732D01*
X1109945Y369618D01*
X1109346Y370549D01*
X1108816Y371520D01*
X1108356Y372527D01*
X1107970Y373564D01*
X1107658Y374626D01*
X1107422Y375707D01*
X1107265Y376803D01*
X1107186Y377907D01*
X1107186Y379013D01*
X1107265Y380117D01*
X1107422Y381213D01*
X1107658Y382294D01*
X1107970Y383356D01*
X1108356Y384393D01*
X1108816Y385400D01*
X1109346Y386371D01*
X1109945Y387302D01*
X1110608Y388188D01*
X1111333Y389025D01*
X1112115Y389807D01*
X1112952Y390532D01*
X1113838Y391195D01*
X1114769Y391794D01*
X1115740Y392324D01*
X1116747Y392784D01*
X1117784Y393170D01*
X1118846Y393482D01*
X1119927Y393718D01*
X1121023Y393875D01*
X1122127Y393954D01*
X1123233Y393954D01*
X1124337Y393875D01*
X1125433Y393718D01*
X1126514Y393482D01*
X1127576Y393170D01*
X1128613Y392784D01*
X1129620Y392324D01*
X1130591Y391794D01*
X1131522Y391195D01*
X1132408Y390532D01*
X1133245Y389807D01*
X1134027Y389025D01*
X1134752Y388188D01*
X1135415Y387302D01*
X1136014Y386371D01*
X1136544Y385400D01*
X1137004Y384393D01*
X1137390Y383356D01*
X1137702Y382294D01*
X1137938Y381213D01*
X1138095Y380117D01*
X1138174Y379013D01*
X1138174Y377907D01*
M02*
