G04 EAGLE Gerber RS-274X export*
G75*
%MOMM*%
%FSLAX34Y34*%
%LPD*%
%INSilkscreen Top*%
%IPPOS*%
%AMOC8*
5,1,8,0,0,1.08239X$1,22.5*%
G01*
%ADD10C,0.152400*%
%ADD11C,0.203200*%
%ADD12C,0.127000*%
%ADD13C,0.254000*%
%ADD14C,0.101600*%
%ADD15C,0.508000*%


D10*
X717042Y385713D02*
X721558Y385713D01*
X721558Y385714D02*
X721691Y385712D01*
X721823Y385706D01*
X721955Y385696D01*
X722087Y385683D01*
X722219Y385665D01*
X722349Y385644D01*
X722480Y385619D01*
X722609Y385590D01*
X722737Y385557D01*
X722865Y385521D01*
X722991Y385481D01*
X723116Y385437D01*
X723240Y385389D01*
X723362Y385338D01*
X723483Y385283D01*
X723602Y385225D01*
X723720Y385163D01*
X723835Y385098D01*
X723949Y385029D01*
X724060Y384958D01*
X724169Y384882D01*
X724276Y384804D01*
X724381Y384723D01*
X724483Y384638D01*
X724583Y384551D01*
X724680Y384461D01*
X724775Y384368D01*
X724866Y384272D01*
X724955Y384174D01*
X725041Y384073D01*
X725124Y383969D01*
X725204Y383863D01*
X725280Y383755D01*
X725354Y383645D01*
X725424Y383532D01*
X725491Y383418D01*
X725554Y383301D01*
X725614Y383183D01*
X725671Y383063D01*
X725724Y382941D01*
X725773Y382818D01*
X725819Y382694D01*
X725861Y382568D01*
X725899Y382441D01*
X725934Y382313D01*
X725965Y382184D01*
X725992Y382055D01*
X726015Y381924D01*
X726035Y381793D01*
X726050Y381661D01*
X726062Y381529D01*
X726070Y381397D01*
X726074Y381264D01*
X726074Y381132D01*
X726070Y380999D01*
X726062Y380867D01*
X726050Y380735D01*
X726035Y380603D01*
X726015Y380472D01*
X725992Y380341D01*
X725965Y380212D01*
X725934Y380083D01*
X725899Y379955D01*
X725861Y379828D01*
X725819Y379702D01*
X725773Y379578D01*
X725724Y379455D01*
X725671Y379333D01*
X725614Y379213D01*
X725554Y379095D01*
X725491Y378978D01*
X725424Y378864D01*
X725354Y378751D01*
X725280Y378641D01*
X725204Y378533D01*
X725124Y378427D01*
X725041Y378323D01*
X724955Y378222D01*
X724866Y378124D01*
X724775Y378028D01*
X724680Y377935D01*
X724583Y377845D01*
X724483Y377758D01*
X724381Y377673D01*
X724276Y377592D01*
X724169Y377514D01*
X724060Y377438D01*
X723949Y377367D01*
X723835Y377298D01*
X723720Y377233D01*
X723602Y377171D01*
X723483Y377113D01*
X723362Y377058D01*
X723240Y377007D01*
X723116Y376959D01*
X722991Y376915D01*
X722865Y376875D01*
X722737Y376839D01*
X722609Y376806D01*
X722480Y376777D01*
X722349Y376752D01*
X722219Y376731D01*
X722087Y376713D01*
X721955Y376700D01*
X721823Y376690D01*
X721691Y376684D01*
X721558Y376682D01*
X717042Y376682D01*
X717042Y392938D01*
X721558Y392938D01*
X721677Y392936D01*
X721797Y392930D01*
X721916Y392920D01*
X722034Y392906D01*
X722153Y392889D01*
X722270Y392867D01*
X722387Y392842D01*
X722502Y392812D01*
X722617Y392779D01*
X722731Y392742D01*
X722843Y392702D01*
X722954Y392657D01*
X723063Y392609D01*
X723171Y392558D01*
X723277Y392503D01*
X723381Y392444D01*
X723483Y392382D01*
X723583Y392317D01*
X723681Y392248D01*
X723777Y392176D01*
X723870Y392101D01*
X723960Y392024D01*
X724048Y391943D01*
X724133Y391859D01*
X724215Y391772D01*
X724295Y391683D01*
X724371Y391591D01*
X724445Y391497D01*
X724515Y391400D01*
X724582Y391302D01*
X724646Y391201D01*
X724706Y391097D01*
X724763Y390992D01*
X724816Y390885D01*
X724866Y390777D01*
X724912Y390667D01*
X724954Y390555D01*
X724993Y390442D01*
X725028Y390328D01*
X725059Y390213D01*
X725087Y390096D01*
X725110Y389979D01*
X725130Y389862D01*
X725146Y389743D01*
X725158Y389624D01*
X725166Y389505D01*
X725170Y389386D01*
X725170Y389266D01*
X725166Y389147D01*
X725158Y389028D01*
X725146Y388909D01*
X725130Y388790D01*
X725110Y388673D01*
X725087Y388556D01*
X725059Y388439D01*
X725028Y388324D01*
X724993Y388210D01*
X724954Y388097D01*
X724912Y387985D01*
X724866Y387875D01*
X724816Y387767D01*
X724763Y387660D01*
X724706Y387555D01*
X724646Y387451D01*
X724582Y387350D01*
X724515Y387252D01*
X724445Y387155D01*
X724371Y387061D01*
X724295Y386969D01*
X724215Y386880D01*
X724133Y386793D01*
X724048Y386709D01*
X723960Y386628D01*
X723870Y386551D01*
X723777Y386476D01*
X723681Y386404D01*
X723583Y386335D01*
X723483Y386270D01*
X723381Y386208D01*
X723277Y386149D01*
X723171Y386094D01*
X723063Y386043D01*
X722954Y385995D01*
X722843Y385950D01*
X722731Y385910D01*
X722617Y385873D01*
X722502Y385840D01*
X722387Y385810D01*
X722270Y385785D01*
X722153Y385763D01*
X722034Y385746D01*
X721916Y385732D01*
X721797Y385722D01*
X721677Y385716D01*
X721558Y385714D01*
X731281Y371263D02*
X733087Y371263D01*
X738506Y387519D01*
X731281Y387519D02*
X734894Y376682D01*
X744446Y381198D02*
X744446Y388422D01*
X744448Y388555D01*
X744454Y388687D01*
X744464Y388819D01*
X744477Y388951D01*
X744495Y389083D01*
X744516Y389213D01*
X744541Y389344D01*
X744570Y389473D01*
X744603Y389601D01*
X744639Y389729D01*
X744679Y389855D01*
X744723Y389980D01*
X744771Y390104D01*
X744822Y390226D01*
X744877Y390347D01*
X744935Y390466D01*
X744997Y390584D01*
X745062Y390699D01*
X745131Y390813D01*
X745202Y390924D01*
X745278Y391033D01*
X745356Y391140D01*
X745437Y391245D01*
X745522Y391347D01*
X745609Y391447D01*
X745699Y391544D01*
X745792Y391639D01*
X745888Y391730D01*
X745986Y391819D01*
X746087Y391905D01*
X746191Y391988D01*
X746297Y392068D01*
X746405Y392144D01*
X746515Y392218D01*
X746628Y392288D01*
X746742Y392355D01*
X746859Y392418D01*
X746977Y392478D01*
X747097Y392535D01*
X747219Y392588D01*
X747342Y392637D01*
X747466Y392683D01*
X747592Y392725D01*
X747719Y392763D01*
X747847Y392798D01*
X747976Y392829D01*
X748105Y392856D01*
X748236Y392879D01*
X748367Y392899D01*
X748499Y392914D01*
X748631Y392926D01*
X748763Y392934D01*
X748896Y392938D01*
X749028Y392938D01*
X749161Y392934D01*
X749293Y392926D01*
X749425Y392914D01*
X749557Y392899D01*
X749688Y392879D01*
X749819Y392856D01*
X749948Y392829D01*
X750077Y392798D01*
X750205Y392763D01*
X750332Y392725D01*
X750458Y392683D01*
X750582Y392637D01*
X750705Y392588D01*
X750827Y392535D01*
X750947Y392478D01*
X751065Y392418D01*
X751182Y392355D01*
X751296Y392288D01*
X751409Y392218D01*
X751519Y392144D01*
X751627Y392068D01*
X751733Y391988D01*
X751837Y391905D01*
X751938Y391819D01*
X752036Y391730D01*
X752132Y391639D01*
X752225Y391544D01*
X752315Y391447D01*
X752402Y391347D01*
X752487Y391245D01*
X752568Y391140D01*
X752646Y391033D01*
X752722Y390924D01*
X752793Y390813D01*
X752862Y390699D01*
X752927Y390584D01*
X752989Y390466D01*
X753047Y390347D01*
X753102Y390226D01*
X753153Y390104D01*
X753201Y389980D01*
X753245Y389855D01*
X753285Y389729D01*
X753321Y389601D01*
X753354Y389473D01*
X753383Y389344D01*
X753408Y389213D01*
X753429Y389083D01*
X753447Y388951D01*
X753460Y388819D01*
X753470Y388687D01*
X753476Y388555D01*
X753478Y388422D01*
X753477Y388422D02*
X753477Y381198D01*
X753478Y381198D02*
X753476Y381065D01*
X753470Y380933D01*
X753460Y380801D01*
X753447Y380669D01*
X753429Y380537D01*
X753408Y380407D01*
X753383Y380276D01*
X753354Y380147D01*
X753321Y380019D01*
X753285Y379891D01*
X753245Y379765D01*
X753201Y379640D01*
X753153Y379516D01*
X753102Y379394D01*
X753047Y379273D01*
X752989Y379154D01*
X752927Y379036D01*
X752862Y378921D01*
X752793Y378807D01*
X752722Y378696D01*
X752646Y378587D01*
X752568Y378480D01*
X752487Y378375D01*
X752402Y378273D01*
X752315Y378173D01*
X752225Y378076D01*
X752132Y377981D01*
X752036Y377890D01*
X751938Y377801D01*
X751837Y377715D01*
X751733Y377632D01*
X751627Y377552D01*
X751519Y377476D01*
X751409Y377402D01*
X751296Y377332D01*
X751182Y377265D01*
X751065Y377202D01*
X750947Y377142D01*
X750827Y377085D01*
X750705Y377032D01*
X750582Y376983D01*
X750458Y376937D01*
X750332Y376895D01*
X750205Y376857D01*
X750077Y376822D01*
X749948Y376791D01*
X749819Y376764D01*
X749688Y376741D01*
X749557Y376721D01*
X749425Y376706D01*
X749293Y376694D01*
X749161Y376686D01*
X749028Y376682D01*
X748896Y376682D01*
X748763Y376686D01*
X748631Y376694D01*
X748499Y376706D01*
X748367Y376721D01*
X748236Y376741D01*
X748105Y376764D01*
X747976Y376791D01*
X747847Y376822D01*
X747719Y376857D01*
X747592Y376895D01*
X747466Y376937D01*
X747342Y376983D01*
X747219Y377032D01*
X747097Y377085D01*
X746977Y377142D01*
X746859Y377202D01*
X746742Y377265D01*
X746628Y377332D01*
X746515Y377402D01*
X746405Y377476D01*
X746297Y377552D01*
X746191Y377632D01*
X746087Y377715D01*
X745986Y377801D01*
X745888Y377890D01*
X745792Y377981D01*
X745699Y378076D01*
X745609Y378173D01*
X745522Y378273D01*
X745437Y378375D01*
X745356Y378480D01*
X745278Y378587D01*
X745202Y378696D01*
X745131Y378807D01*
X745062Y378921D01*
X744997Y379036D01*
X744935Y379154D01*
X744877Y379273D01*
X744822Y379394D01*
X744771Y379516D01*
X744723Y379640D01*
X744679Y379765D01*
X744639Y379891D01*
X744603Y380019D01*
X744570Y380147D01*
X744541Y380276D01*
X744516Y380407D01*
X744495Y380537D01*
X744477Y380669D01*
X744464Y380801D01*
X744454Y380933D01*
X744448Y381065D01*
X744446Y381198D01*
X763551Y376682D02*
X763551Y392938D01*
X768066Y392938D02*
X759035Y392938D01*
X778140Y392938D02*
X772721Y376682D01*
X783559Y376682D02*
X778140Y392938D01*
X782204Y380746D02*
X774076Y380746D01*
X717042Y358507D02*
X717042Y354894D01*
X717042Y358507D02*
X717044Y358626D01*
X717050Y358746D01*
X717060Y358865D01*
X717074Y358983D01*
X717091Y359102D01*
X717113Y359219D01*
X717138Y359336D01*
X717168Y359451D01*
X717201Y359566D01*
X717238Y359680D01*
X717278Y359792D01*
X717323Y359903D01*
X717371Y360012D01*
X717422Y360120D01*
X717477Y360226D01*
X717536Y360330D01*
X717598Y360432D01*
X717663Y360532D01*
X717732Y360630D01*
X717804Y360726D01*
X717879Y360819D01*
X717956Y360909D01*
X718037Y360997D01*
X718121Y361082D01*
X718208Y361164D01*
X718297Y361244D01*
X718389Y361320D01*
X718483Y361394D01*
X718580Y361464D01*
X718678Y361531D01*
X718779Y361595D01*
X718883Y361655D01*
X718988Y361712D01*
X719095Y361765D01*
X719203Y361815D01*
X719313Y361861D01*
X719425Y361903D01*
X719538Y361942D01*
X719652Y361977D01*
X719767Y362008D01*
X719884Y362036D01*
X720001Y362059D01*
X720118Y362079D01*
X720237Y362095D01*
X720356Y362107D01*
X720475Y362115D01*
X720594Y362119D01*
X720714Y362119D01*
X720833Y362115D01*
X720952Y362107D01*
X721071Y362095D01*
X721190Y362079D01*
X721307Y362059D01*
X721424Y362036D01*
X721541Y362008D01*
X721656Y361977D01*
X721770Y361942D01*
X721883Y361903D01*
X721995Y361861D01*
X722105Y361815D01*
X722213Y361765D01*
X722320Y361712D01*
X722425Y361655D01*
X722529Y361595D01*
X722630Y361531D01*
X722728Y361464D01*
X722825Y361394D01*
X722919Y361320D01*
X723011Y361244D01*
X723100Y361164D01*
X723187Y361082D01*
X723271Y360997D01*
X723352Y360909D01*
X723429Y360819D01*
X723504Y360726D01*
X723576Y360630D01*
X723645Y360532D01*
X723710Y360432D01*
X723772Y360330D01*
X723831Y360226D01*
X723886Y360120D01*
X723937Y360012D01*
X723985Y359903D01*
X724030Y359792D01*
X724070Y359680D01*
X724107Y359566D01*
X724140Y359451D01*
X724170Y359336D01*
X724195Y359219D01*
X724217Y359102D01*
X724234Y358983D01*
X724248Y358865D01*
X724258Y358746D01*
X724264Y358626D01*
X724266Y358507D01*
X724267Y358507D02*
X724267Y354894D01*
X724266Y354894D02*
X724264Y354775D01*
X724258Y354655D01*
X724248Y354536D01*
X724234Y354418D01*
X724217Y354299D01*
X724195Y354182D01*
X724170Y354065D01*
X724140Y353950D01*
X724107Y353835D01*
X724070Y353721D01*
X724030Y353609D01*
X723985Y353498D01*
X723937Y353389D01*
X723886Y353281D01*
X723831Y353175D01*
X723772Y353071D01*
X723710Y352969D01*
X723645Y352869D01*
X723576Y352771D01*
X723504Y352675D01*
X723429Y352582D01*
X723352Y352492D01*
X723271Y352404D01*
X723187Y352319D01*
X723100Y352237D01*
X723011Y352157D01*
X722919Y352081D01*
X722825Y352007D01*
X722728Y351937D01*
X722630Y351870D01*
X722529Y351806D01*
X722425Y351746D01*
X722320Y351689D01*
X722213Y351636D01*
X722105Y351586D01*
X721995Y351540D01*
X721883Y351498D01*
X721770Y351459D01*
X721656Y351424D01*
X721541Y351393D01*
X721424Y351365D01*
X721307Y351342D01*
X721190Y351322D01*
X721071Y351306D01*
X720952Y351294D01*
X720833Y351286D01*
X720714Y351282D01*
X720594Y351282D01*
X720475Y351286D01*
X720356Y351294D01*
X720237Y351306D01*
X720118Y351322D01*
X720001Y351342D01*
X719884Y351365D01*
X719767Y351393D01*
X719652Y351424D01*
X719538Y351459D01*
X719425Y351498D01*
X719313Y351540D01*
X719203Y351586D01*
X719095Y351636D01*
X718988Y351689D01*
X718883Y351746D01*
X718779Y351806D01*
X718678Y351870D01*
X718580Y351937D01*
X718483Y352007D01*
X718389Y352081D01*
X718297Y352157D01*
X718208Y352237D01*
X718121Y352319D01*
X718037Y352404D01*
X717956Y352492D01*
X717879Y352582D01*
X717804Y352675D01*
X717732Y352771D01*
X717663Y352869D01*
X717598Y352969D01*
X717536Y353071D01*
X717477Y353175D01*
X717422Y353281D01*
X717371Y353389D01*
X717323Y353498D01*
X717278Y353609D01*
X717238Y353721D01*
X717201Y353835D01*
X717168Y353950D01*
X717138Y354065D01*
X717113Y354182D01*
X717091Y354299D01*
X717074Y354418D01*
X717060Y354536D01*
X717050Y354655D01*
X717044Y354775D01*
X717042Y354894D01*
X729292Y362119D02*
X734710Y362119D01*
X731098Y367538D02*
X731098Y353991D01*
X731100Y353890D01*
X731106Y353789D01*
X731115Y353688D01*
X731128Y353587D01*
X731145Y353487D01*
X731166Y353388D01*
X731190Y353290D01*
X731218Y353193D01*
X731250Y353096D01*
X731285Y353001D01*
X731324Y352908D01*
X731366Y352816D01*
X731412Y352725D01*
X731461Y352637D01*
X731513Y352550D01*
X731569Y352465D01*
X731627Y352382D01*
X731689Y352302D01*
X731754Y352224D01*
X731821Y352148D01*
X731891Y352075D01*
X731964Y352005D01*
X732040Y351938D01*
X732118Y351873D01*
X732198Y351811D01*
X732281Y351753D01*
X732366Y351697D01*
X732453Y351645D01*
X732541Y351596D01*
X732632Y351550D01*
X732724Y351508D01*
X732817Y351469D01*
X732912Y351434D01*
X733009Y351402D01*
X733106Y351374D01*
X733204Y351350D01*
X733303Y351329D01*
X733403Y351312D01*
X733504Y351299D01*
X733605Y351290D01*
X733706Y351284D01*
X733807Y351282D01*
X734710Y351282D01*
X743576Y357604D02*
X747640Y357604D01*
X743576Y357604D02*
X743464Y357602D01*
X743353Y357596D01*
X743242Y357586D01*
X743131Y357573D01*
X743021Y357555D01*
X742912Y357533D01*
X742803Y357508D01*
X742695Y357479D01*
X742589Y357446D01*
X742483Y357409D01*
X742379Y357369D01*
X742277Y357325D01*
X742176Y357277D01*
X742077Y357226D01*
X741979Y357171D01*
X741884Y357113D01*
X741791Y357052D01*
X741700Y356987D01*
X741611Y356919D01*
X741525Y356848D01*
X741442Y356775D01*
X741361Y356698D01*
X741282Y356618D01*
X741207Y356536D01*
X741135Y356451D01*
X741065Y356364D01*
X740999Y356274D01*
X740936Y356182D01*
X740876Y356087D01*
X740820Y355991D01*
X740767Y355893D01*
X740718Y355793D01*
X740672Y355691D01*
X740630Y355588D01*
X740591Y355483D01*
X740556Y355377D01*
X740525Y355270D01*
X740498Y355162D01*
X740474Y355053D01*
X740455Y354943D01*
X740439Y354833D01*
X740427Y354722D01*
X740419Y354610D01*
X740415Y354499D01*
X740415Y354387D01*
X740419Y354276D01*
X740427Y354164D01*
X740439Y354053D01*
X740455Y353943D01*
X740474Y353833D01*
X740498Y353724D01*
X740525Y353616D01*
X740556Y353509D01*
X740591Y353403D01*
X740630Y353298D01*
X740672Y353195D01*
X740718Y353093D01*
X740767Y352993D01*
X740820Y352895D01*
X740876Y352799D01*
X740936Y352704D01*
X740999Y352612D01*
X741065Y352522D01*
X741135Y352435D01*
X741207Y352350D01*
X741282Y352268D01*
X741361Y352188D01*
X741442Y352111D01*
X741525Y352038D01*
X741611Y351967D01*
X741700Y351899D01*
X741791Y351834D01*
X741884Y351773D01*
X741979Y351715D01*
X742077Y351660D01*
X742176Y351609D01*
X742277Y351561D01*
X742379Y351517D01*
X742483Y351477D01*
X742589Y351440D01*
X742695Y351407D01*
X742803Y351378D01*
X742912Y351353D01*
X743021Y351331D01*
X743131Y351313D01*
X743242Y351300D01*
X743353Y351290D01*
X743464Y351284D01*
X743576Y351282D01*
X747640Y351282D01*
X747640Y359410D01*
X747638Y359511D01*
X747632Y359612D01*
X747623Y359713D01*
X747610Y359814D01*
X747593Y359914D01*
X747572Y360013D01*
X747548Y360111D01*
X747520Y360208D01*
X747488Y360305D01*
X747453Y360400D01*
X747414Y360493D01*
X747372Y360585D01*
X747326Y360676D01*
X747277Y360765D01*
X747225Y360851D01*
X747169Y360936D01*
X747111Y361019D01*
X747049Y361099D01*
X746984Y361177D01*
X746917Y361253D01*
X746847Y361326D01*
X746774Y361396D01*
X746698Y361463D01*
X746620Y361528D01*
X746540Y361590D01*
X746457Y361648D01*
X746372Y361704D01*
X746286Y361756D01*
X746197Y361805D01*
X746106Y361851D01*
X746014Y361893D01*
X745921Y361932D01*
X745826Y361967D01*
X745729Y361999D01*
X745632Y362027D01*
X745534Y362051D01*
X745435Y362072D01*
X745335Y362089D01*
X745234Y362102D01*
X745133Y362111D01*
X745032Y362117D01*
X744931Y362119D01*
X741319Y362119D01*
X754036Y362119D02*
X757648Y351282D01*
X761261Y362119D01*
X767027Y362119D02*
X767027Y351282D01*
X766575Y366635D02*
X766575Y367538D01*
X767479Y367538D01*
X767479Y366635D01*
X766575Y366635D01*
X773314Y358507D02*
X773314Y354894D01*
X773315Y358507D02*
X773317Y358626D01*
X773323Y358746D01*
X773333Y358865D01*
X773347Y358983D01*
X773364Y359102D01*
X773386Y359219D01*
X773411Y359336D01*
X773441Y359451D01*
X773474Y359566D01*
X773511Y359680D01*
X773551Y359792D01*
X773596Y359903D01*
X773644Y360012D01*
X773695Y360120D01*
X773750Y360226D01*
X773809Y360330D01*
X773871Y360432D01*
X773936Y360532D01*
X774005Y360630D01*
X774077Y360726D01*
X774152Y360819D01*
X774229Y360909D01*
X774310Y360997D01*
X774394Y361082D01*
X774481Y361164D01*
X774570Y361244D01*
X774662Y361320D01*
X774756Y361394D01*
X774853Y361464D01*
X774951Y361531D01*
X775052Y361595D01*
X775156Y361655D01*
X775261Y361712D01*
X775368Y361765D01*
X775476Y361815D01*
X775586Y361861D01*
X775698Y361903D01*
X775811Y361942D01*
X775925Y361977D01*
X776040Y362008D01*
X776157Y362036D01*
X776274Y362059D01*
X776391Y362079D01*
X776510Y362095D01*
X776629Y362107D01*
X776748Y362115D01*
X776867Y362119D01*
X776987Y362119D01*
X777106Y362115D01*
X777225Y362107D01*
X777344Y362095D01*
X777463Y362079D01*
X777580Y362059D01*
X777697Y362036D01*
X777814Y362008D01*
X777929Y361977D01*
X778043Y361942D01*
X778156Y361903D01*
X778268Y361861D01*
X778378Y361815D01*
X778486Y361765D01*
X778593Y361712D01*
X778698Y361655D01*
X778802Y361595D01*
X778903Y361531D01*
X779001Y361464D01*
X779098Y361394D01*
X779192Y361320D01*
X779284Y361244D01*
X779373Y361164D01*
X779460Y361082D01*
X779544Y360997D01*
X779625Y360909D01*
X779702Y360819D01*
X779777Y360726D01*
X779849Y360630D01*
X779918Y360532D01*
X779983Y360432D01*
X780045Y360330D01*
X780104Y360226D01*
X780159Y360120D01*
X780210Y360012D01*
X780258Y359903D01*
X780303Y359792D01*
X780343Y359680D01*
X780380Y359566D01*
X780413Y359451D01*
X780443Y359336D01*
X780468Y359219D01*
X780490Y359102D01*
X780507Y358983D01*
X780521Y358865D01*
X780531Y358746D01*
X780537Y358626D01*
X780539Y358507D01*
X780539Y354894D01*
X780537Y354775D01*
X780531Y354655D01*
X780521Y354536D01*
X780507Y354418D01*
X780490Y354299D01*
X780468Y354182D01*
X780443Y354065D01*
X780413Y353950D01*
X780380Y353835D01*
X780343Y353721D01*
X780303Y353609D01*
X780258Y353498D01*
X780210Y353389D01*
X780159Y353281D01*
X780104Y353175D01*
X780045Y353071D01*
X779983Y352969D01*
X779918Y352869D01*
X779849Y352771D01*
X779777Y352675D01*
X779702Y352582D01*
X779625Y352492D01*
X779544Y352404D01*
X779460Y352319D01*
X779373Y352237D01*
X779284Y352157D01*
X779192Y352081D01*
X779098Y352007D01*
X779001Y351937D01*
X778903Y351870D01*
X778802Y351806D01*
X778698Y351746D01*
X778593Y351689D01*
X778486Y351636D01*
X778378Y351586D01*
X778268Y351540D01*
X778156Y351498D01*
X778043Y351459D01*
X777929Y351424D01*
X777814Y351393D01*
X777697Y351365D01*
X777580Y351342D01*
X777463Y351322D01*
X777344Y351306D01*
X777225Y351294D01*
X777106Y351286D01*
X776987Y351282D01*
X776867Y351282D01*
X776748Y351286D01*
X776629Y351294D01*
X776510Y351306D01*
X776391Y351322D01*
X776274Y351342D01*
X776157Y351365D01*
X776040Y351393D01*
X775925Y351424D01*
X775811Y351459D01*
X775698Y351498D01*
X775586Y351540D01*
X775476Y351586D01*
X775368Y351636D01*
X775261Y351689D01*
X775156Y351746D01*
X775052Y351806D01*
X774951Y351870D01*
X774853Y351937D01*
X774756Y352007D01*
X774662Y352081D01*
X774570Y352157D01*
X774481Y352237D01*
X774394Y352319D01*
X774310Y352404D01*
X774229Y352492D01*
X774152Y352582D01*
X774077Y352675D01*
X774005Y352771D01*
X773936Y352869D01*
X773871Y352969D01*
X773809Y353071D01*
X773750Y353175D01*
X773695Y353281D01*
X773644Y353389D01*
X773596Y353498D01*
X773551Y353609D01*
X773511Y353721D01*
X773474Y353835D01*
X773441Y353950D01*
X773411Y354065D01*
X773386Y354182D01*
X773364Y354299D01*
X773347Y354418D01*
X773333Y354536D01*
X773323Y354655D01*
X773317Y354775D01*
X773315Y354894D01*
X786375Y352185D02*
X786375Y351282D01*
X786375Y352185D02*
X787278Y352185D01*
X787278Y351282D01*
X786375Y351282D01*
X795750Y351282D02*
X800265Y351282D01*
X795750Y351282D02*
X795649Y351284D01*
X795548Y351290D01*
X795447Y351299D01*
X795346Y351312D01*
X795246Y351329D01*
X795147Y351350D01*
X795049Y351374D01*
X794952Y351402D01*
X794855Y351434D01*
X794760Y351469D01*
X794667Y351508D01*
X794575Y351550D01*
X794484Y351596D01*
X794396Y351645D01*
X794309Y351697D01*
X794224Y351753D01*
X794141Y351811D01*
X794061Y351873D01*
X793983Y351938D01*
X793907Y352005D01*
X793834Y352075D01*
X793764Y352148D01*
X793697Y352224D01*
X793632Y352302D01*
X793570Y352382D01*
X793512Y352465D01*
X793456Y352550D01*
X793404Y352637D01*
X793355Y352725D01*
X793309Y352816D01*
X793267Y352908D01*
X793228Y353001D01*
X793193Y353096D01*
X793161Y353193D01*
X793133Y353290D01*
X793109Y353388D01*
X793088Y353487D01*
X793071Y353587D01*
X793058Y353688D01*
X793049Y353789D01*
X793043Y353890D01*
X793041Y353991D01*
X793041Y359410D01*
X793043Y359511D01*
X793049Y359612D01*
X793058Y359713D01*
X793071Y359814D01*
X793088Y359914D01*
X793109Y360013D01*
X793133Y360111D01*
X793161Y360208D01*
X793193Y360305D01*
X793228Y360400D01*
X793267Y360493D01*
X793309Y360585D01*
X793355Y360676D01*
X793404Y360765D01*
X793456Y360851D01*
X793512Y360936D01*
X793570Y361019D01*
X793632Y361099D01*
X793697Y361177D01*
X793764Y361253D01*
X793834Y361326D01*
X793907Y361396D01*
X793983Y361463D01*
X794061Y361528D01*
X794141Y361590D01*
X794224Y361648D01*
X794309Y361704D01*
X794396Y361756D01*
X794484Y361805D01*
X794575Y361851D01*
X794667Y361893D01*
X794760Y361932D01*
X794855Y361967D01*
X794952Y361999D01*
X795049Y362027D01*
X795147Y362051D01*
X795246Y362072D01*
X795346Y362089D01*
X795447Y362102D01*
X795548Y362111D01*
X795649Y362117D01*
X795750Y362119D01*
X800265Y362119D01*
X800265Y348573D01*
X800263Y348469D01*
X800257Y348366D01*
X800247Y348262D01*
X800233Y348159D01*
X800215Y348057D01*
X800194Y347956D01*
X800168Y347855D01*
X800139Y347756D01*
X800106Y347657D01*
X800069Y347560D01*
X800028Y347465D01*
X799984Y347371D01*
X799936Y347279D01*
X799885Y347189D01*
X799830Y347100D01*
X799772Y347014D01*
X799710Y346931D01*
X799646Y346849D01*
X799578Y346771D01*
X799508Y346695D01*
X799435Y346621D01*
X799358Y346551D01*
X799280Y346483D01*
X799198Y346419D01*
X799115Y346357D01*
X799029Y346299D01*
X798940Y346244D01*
X798850Y346193D01*
X798758Y346145D01*
X798664Y346101D01*
X798569Y346060D01*
X798472Y346023D01*
X798373Y345990D01*
X798274Y345961D01*
X798173Y345935D01*
X798072Y345914D01*
X797970Y345896D01*
X797867Y345882D01*
X797763Y345872D01*
X797660Y345866D01*
X797556Y345864D01*
X797556Y345863D02*
X793944Y345863D01*
X807703Y353991D02*
X807703Y362119D01*
X807703Y353991D02*
X807705Y353890D01*
X807711Y353789D01*
X807720Y353688D01*
X807733Y353587D01*
X807750Y353487D01*
X807771Y353388D01*
X807795Y353290D01*
X807823Y353193D01*
X807855Y353096D01*
X807890Y353001D01*
X807929Y352908D01*
X807971Y352816D01*
X808017Y352725D01*
X808066Y352637D01*
X808118Y352550D01*
X808174Y352465D01*
X808232Y352382D01*
X808294Y352302D01*
X808359Y352224D01*
X808426Y352148D01*
X808496Y352075D01*
X808569Y352005D01*
X808645Y351938D01*
X808723Y351873D01*
X808803Y351811D01*
X808886Y351753D01*
X808971Y351697D01*
X809058Y351645D01*
X809146Y351596D01*
X809237Y351550D01*
X809329Y351508D01*
X809422Y351469D01*
X809517Y351434D01*
X809614Y351402D01*
X809711Y351374D01*
X809809Y351350D01*
X809908Y351329D01*
X810008Y351312D01*
X810109Y351299D01*
X810210Y351290D01*
X810311Y351284D01*
X810412Y351282D01*
X814928Y351282D01*
X814928Y362119D01*
X822377Y362119D02*
X822377Y351282D01*
X822377Y362119D02*
X827796Y362119D01*
X827796Y360313D01*
X833234Y362119D02*
X833234Y353991D01*
X833236Y353890D01*
X833242Y353789D01*
X833251Y353688D01*
X833264Y353587D01*
X833281Y353487D01*
X833302Y353388D01*
X833326Y353290D01*
X833354Y353193D01*
X833386Y353096D01*
X833421Y353001D01*
X833460Y352908D01*
X833502Y352816D01*
X833548Y352725D01*
X833597Y352637D01*
X833649Y352550D01*
X833705Y352465D01*
X833763Y352382D01*
X833825Y352302D01*
X833890Y352224D01*
X833957Y352148D01*
X834027Y352075D01*
X834100Y352005D01*
X834176Y351938D01*
X834254Y351873D01*
X834334Y351811D01*
X834417Y351753D01*
X834502Y351697D01*
X834589Y351645D01*
X834677Y351596D01*
X834768Y351550D01*
X834860Y351508D01*
X834953Y351469D01*
X835048Y351434D01*
X835145Y351402D01*
X835242Y351374D01*
X835340Y351350D01*
X835439Y351329D01*
X835539Y351312D01*
X835640Y351299D01*
X835741Y351290D01*
X835842Y351284D01*
X835943Y351282D01*
X840459Y351282D01*
X840459Y362119D01*
D11*
X750316Y582168D02*
X756666Y588518D01*
X731266Y588518D02*
X724916Y582168D01*
X712216Y582168D01*
X705866Y588518D01*
X731266Y588518D02*
X737616Y582168D01*
X750316Y582168D01*
X680466Y588518D02*
X674116Y582168D01*
X699516Y582168D02*
X705866Y588518D01*
X699516Y582168D02*
X686816Y582168D01*
X680466Y588518D01*
X655066Y588518D02*
X648716Y582168D01*
X636016Y582168D01*
X629666Y588518D01*
X655066Y588518D02*
X661416Y582168D01*
X674116Y582168D01*
X604266Y588518D02*
X597916Y582168D01*
X623316Y582168D02*
X629666Y588518D01*
X623316Y582168D02*
X610616Y582168D01*
X604266Y588518D01*
X578866Y588518D02*
X578866Y601218D01*
X585216Y607568D01*
X585216Y582168D02*
X597916Y582168D01*
X902716Y582168D02*
X909066Y588518D01*
X902716Y582168D02*
X890016Y582168D01*
X883666Y588518D01*
X858266Y588518D02*
X851916Y582168D01*
X877316Y582168D02*
X883666Y588518D01*
X877316Y582168D02*
X864616Y582168D01*
X858266Y588518D01*
X832866Y588518D02*
X826516Y582168D01*
X813816Y582168D01*
X807466Y588518D01*
X832866Y588518D02*
X839216Y582168D01*
X851916Y582168D01*
X782066Y588518D02*
X775716Y582168D01*
X801116Y582168D02*
X807466Y588518D01*
X801116Y582168D02*
X788416Y582168D01*
X782066Y588518D01*
X763016Y582168D02*
X756666Y588518D01*
X763016Y582168D02*
X775716Y582168D01*
X750316Y632968D02*
X737616Y632968D01*
X750316Y632968D02*
X756666Y626618D01*
X712216Y632968D02*
X705866Y626618D01*
X712216Y632968D02*
X724916Y632968D01*
X731266Y626618D01*
X737616Y632968D01*
X674116Y632968D02*
X661416Y632968D01*
X674116Y632968D02*
X680466Y626618D01*
X686816Y632968D01*
X699516Y632968D01*
X705866Y626618D01*
X636016Y632968D02*
X629666Y626618D01*
X636016Y632968D02*
X648716Y632968D01*
X655066Y626618D01*
X661416Y632968D01*
X597916Y632968D02*
X585216Y632968D01*
X597916Y632968D02*
X604266Y626618D01*
X610616Y632968D01*
X623316Y632968D01*
X629666Y626618D01*
X578866Y626618D02*
X578866Y613918D01*
X585216Y607568D01*
X883666Y626618D02*
X890016Y632968D01*
X902716Y632968D01*
X909066Y626618D01*
X851916Y632968D02*
X839216Y632968D01*
X851916Y632968D02*
X858266Y626618D01*
X864616Y632968D01*
X877316Y632968D01*
X883666Y626618D01*
X813816Y632968D02*
X807466Y626618D01*
X813816Y632968D02*
X826516Y632968D01*
X832866Y626618D01*
X839216Y632968D01*
X775716Y632968D02*
X763016Y632968D01*
X775716Y632968D02*
X782066Y626618D01*
X788416Y632968D01*
X801116Y632968D01*
X807466Y626618D01*
X763016Y632968D02*
X756666Y626618D01*
X604266Y626618D02*
X604266Y588518D01*
X629666Y588518D02*
X629666Y626618D01*
X655066Y626618D02*
X655066Y588518D01*
X680466Y588518D02*
X680466Y626618D01*
X705866Y626618D02*
X705866Y588518D01*
X731266Y588518D02*
X731266Y626618D01*
X756666Y626618D02*
X756666Y588518D01*
X782066Y588518D02*
X782066Y626618D01*
X807466Y626618D02*
X807466Y588518D01*
X832866Y588518D02*
X832866Y626618D01*
X858266Y626618D02*
X858266Y588518D01*
X883666Y588518D02*
X883666Y626618D01*
X1086866Y626618D02*
X1086866Y613918D01*
X1086866Y601218D02*
X1086866Y588518D01*
X1086866Y601218D02*
X1080516Y607568D01*
X1086866Y613918D01*
X928116Y632968D02*
X915416Y632968D01*
X928116Y632968D02*
X934466Y626618D01*
X915416Y632968D02*
X909066Y626618D01*
X1061466Y626618D02*
X1067816Y632968D01*
X1080516Y632968D01*
X1086866Y626618D01*
X1029716Y632968D02*
X1017016Y632968D01*
X1029716Y632968D02*
X1036066Y626618D01*
X1042416Y632968D01*
X1055116Y632968D01*
X1061466Y626618D01*
X991616Y632968D02*
X985266Y626618D01*
X991616Y632968D02*
X1004316Y632968D01*
X1010666Y626618D01*
X1017016Y632968D01*
X953516Y632968D02*
X940816Y632968D01*
X953516Y632968D02*
X959866Y626618D01*
X966216Y632968D01*
X978916Y632968D01*
X985266Y626618D01*
X940816Y632968D02*
X934466Y626618D01*
X909066Y626618D02*
X909066Y588518D01*
X934466Y588518D02*
X934466Y626618D01*
X959866Y626618D02*
X959866Y588518D01*
X985266Y588518D02*
X985266Y626618D01*
X1010666Y626618D02*
X1010666Y588518D01*
X1036066Y588518D02*
X1036066Y626618D01*
X1061466Y626618D02*
X1061466Y588518D01*
X1067816Y582168D02*
X1080516Y582168D01*
X1067816Y582168D02*
X1061466Y588518D01*
X1080516Y582168D02*
X1086866Y588518D01*
X934466Y588518D02*
X928116Y582168D01*
X915416Y582168D01*
X909066Y588518D01*
X966216Y582168D02*
X978916Y582168D01*
X966216Y582168D02*
X959866Y588518D01*
X953516Y582168D01*
X940816Y582168D01*
X934466Y588518D01*
X1004316Y582168D02*
X1010666Y588518D01*
X1004316Y582168D02*
X991616Y582168D01*
X985266Y588518D01*
X978916Y582168D01*
X1042416Y582168D02*
X1055116Y582168D01*
X1042416Y582168D02*
X1036066Y588518D01*
X1029716Y582168D01*
X1017016Y582168D01*
X1010666Y588518D01*
X1055116Y582168D02*
X1061466Y588518D01*
X585216Y582168D02*
X578866Y588518D01*
X578866Y626618D02*
X585216Y632968D01*
X582676Y578358D02*
X599186Y578358D01*
D12*
X574760Y637215D02*
X574760Y640969D01*
X574759Y637215D02*
X574757Y637150D01*
X574751Y637086D01*
X574741Y637022D01*
X574728Y636958D01*
X574710Y636896D01*
X574689Y636835D01*
X574665Y636775D01*
X574636Y636717D01*
X574604Y636660D01*
X574569Y636606D01*
X574531Y636554D01*
X574489Y636504D01*
X574445Y636457D01*
X574398Y636413D01*
X574348Y636371D01*
X574296Y636333D01*
X574242Y636298D01*
X574185Y636266D01*
X574127Y636237D01*
X574067Y636213D01*
X574006Y636192D01*
X573944Y636174D01*
X573880Y636161D01*
X573816Y636151D01*
X573752Y636145D01*
X573687Y636143D01*
X573151Y636143D01*
X577708Y639897D02*
X579048Y640969D01*
X579048Y636143D01*
X577708Y636143D02*
X580389Y636143D01*
D11*
X1145820Y548400D02*
X1145820Y518400D01*
X1119820Y503400D02*
X1103320Y503400D01*
X1103320Y555900D02*
X1103320Y563400D01*
X1119820Y563400D01*
X1103320Y510900D02*
X1103320Y503400D01*
X1095804Y508400D02*
X1095806Y508463D01*
X1095812Y508526D01*
X1095822Y508589D01*
X1095835Y508650D01*
X1095853Y508711D01*
X1095874Y508770D01*
X1095899Y508829D01*
X1095927Y508885D01*
X1095959Y508940D01*
X1095994Y508992D01*
X1096033Y509042D01*
X1096074Y509090D01*
X1096119Y509135D01*
X1096166Y509177D01*
X1096215Y509216D01*
X1096267Y509252D01*
X1096321Y509285D01*
X1096377Y509314D01*
X1096435Y509340D01*
X1096494Y509362D01*
X1096554Y509381D01*
X1096616Y509395D01*
X1096678Y509406D01*
X1096741Y509413D01*
X1096804Y509416D01*
X1096867Y509415D01*
X1096930Y509410D01*
X1096993Y509401D01*
X1097055Y509388D01*
X1097116Y509372D01*
X1097176Y509352D01*
X1097234Y509328D01*
X1097291Y509300D01*
X1097346Y509269D01*
X1097399Y509235D01*
X1097450Y509197D01*
X1097498Y509156D01*
X1097544Y509113D01*
X1097587Y509066D01*
X1097627Y509017D01*
X1097664Y508966D01*
X1097697Y508913D01*
X1097727Y508857D01*
X1097754Y508800D01*
X1097777Y508741D01*
X1097796Y508681D01*
X1097812Y508619D01*
X1097824Y508557D01*
X1097832Y508495D01*
X1097836Y508432D01*
X1097836Y508368D01*
X1097832Y508305D01*
X1097824Y508243D01*
X1097812Y508181D01*
X1097796Y508119D01*
X1097777Y508059D01*
X1097754Y508000D01*
X1097727Y507943D01*
X1097697Y507887D01*
X1097664Y507834D01*
X1097627Y507783D01*
X1097587Y507734D01*
X1097544Y507687D01*
X1097498Y507644D01*
X1097450Y507603D01*
X1097399Y507565D01*
X1097346Y507531D01*
X1097291Y507500D01*
X1097234Y507472D01*
X1097176Y507448D01*
X1097116Y507428D01*
X1097055Y507412D01*
X1096993Y507399D01*
X1096930Y507390D01*
X1096867Y507385D01*
X1096804Y507384D01*
X1096741Y507387D01*
X1096678Y507394D01*
X1096616Y507405D01*
X1096554Y507419D01*
X1096494Y507438D01*
X1096435Y507460D01*
X1096377Y507486D01*
X1096321Y507515D01*
X1096267Y507548D01*
X1096215Y507584D01*
X1096166Y507623D01*
X1096119Y507665D01*
X1096074Y507710D01*
X1096033Y507758D01*
X1095994Y507808D01*
X1095959Y507860D01*
X1095927Y507915D01*
X1095899Y507971D01*
X1095874Y508030D01*
X1095853Y508089D01*
X1095835Y508150D01*
X1095822Y508211D01*
X1095812Y508274D01*
X1095806Y508337D01*
X1095804Y508400D01*
D12*
X1094303Y562314D02*
X1090549Y562314D01*
X1094303Y562313D02*
X1094368Y562311D01*
X1094432Y562305D01*
X1094496Y562295D01*
X1094560Y562282D01*
X1094622Y562264D01*
X1094683Y562243D01*
X1094743Y562219D01*
X1094801Y562190D01*
X1094858Y562158D01*
X1094912Y562123D01*
X1094964Y562085D01*
X1095014Y562043D01*
X1095061Y561999D01*
X1095105Y561952D01*
X1095147Y561902D01*
X1095185Y561850D01*
X1095220Y561796D01*
X1095252Y561739D01*
X1095281Y561681D01*
X1095305Y561621D01*
X1095326Y561560D01*
X1095344Y561498D01*
X1095357Y561434D01*
X1095367Y561370D01*
X1095373Y561306D01*
X1095375Y561241D01*
X1095375Y560705D01*
X1090549Y566736D02*
X1090551Y566804D01*
X1090557Y566871D01*
X1090566Y566938D01*
X1090579Y567005D01*
X1090596Y567070D01*
X1090617Y567135D01*
X1090641Y567198D01*
X1090669Y567260D01*
X1090700Y567320D01*
X1090734Y567378D01*
X1090772Y567434D01*
X1090812Y567489D01*
X1090856Y567540D01*
X1090903Y567589D01*
X1090952Y567636D01*
X1091003Y567680D01*
X1091058Y567720D01*
X1091114Y567758D01*
X1091172Y567792D01*
X1091232Y567823D01*
X1091294Y567851D01*
X1091357Y567875D01*
X1091422Y567896D01*
X1091487Y567913D01*
X1091554Y567926D01*
X1091621Y567935D01*
X1091688Y567941D01*
X1091756Y567943D01*
X1090549Y566736D02*
X1090551Y566658D01*
X1090557Y566580D01*
X1090567Y566503D01*
X1090580Y566426D01*
X1090598Y566350D01*
X1090619Y566275D01*
X1090644Y566201D01*
X1090673Y566129D01*
X1090705Y566058D01*
X1090741Y565989D01*
X1090780Y565921D01*
X1090823Y565856D01*
X1090869Y565793D01*
X1090918Y565732D01*
X1090970Y565674D01*
X1091025Y565619D01*
X1091082Y565566D01*
X1091142Y565517D01*
X1091205Y565470D01*
X1091270Y565427D01*
X1091336Y565387D01*
X1091405Y565350D01*
X1091476Y565317D01*
X1091548Y565287D01*
X1091622Y565261D01*
X1092694Y567541D02*
X1092645Y567590D01*
X1092593Y567637D01*
X1092538Y567680D01*
X1092481Y567721D01*
X1092422Y567759D01*
X1092361Y567793D01*
X1092298Y567824D01*
X1092234Y567852D01*
X1092168Y567876D01*
X1092102Y567896D01*
X1092034Y567913D01*
X1091965Y567926D01*
X1091896Y567935D01*
X1091826Y567941D01*
X1091756Y567943D01*
X1092694Y567541D02*
X1095375Y565262D01*
X1095375Y567943D01*
D11*
X1145820Y462040D02*
X1145820Y432040D01*
X1119820Y417040D02*
X1103320Y417040D01*
X1103320Y469540D02*
X1103320Y477040D01*
X1119820Y477040D01*
X1103320Y424540D02*
X1103320Y417040D01*
X1095804Y422040D02*
X1095806Y422103D01*
X1095812Y422166D01*
X1095822Y422229D01*
X1095835Y422290D01*
X1095853Y422351D01*
X1095874Y422410D01*
X1095899Y422469D01*
X1095927Y422525D01*
X1095959Y422580D01*
X1095994Y422632D01*
X1096033Y422682D01*
X1096074Y422730D01*
X1096119Y422775D01*
X1096166Y422817D01*
X1096215Y422856D01*
X1096267Y422892D01*
X1096321Y422925D01*
X1096377Y422954D01*
X1096435Y422980D01*
X1096494Y423002D01*
X1096554Y423021D01*
X1096616Y423035D01*
X1096678Y423046D01*
X1096741Y423053D01*
X1096804Y423056D01*
X1096867Y423055D01*
X1096930Y423050D01*
X1096993Y423041D01*
X1097055Y423028D01*
X1097116Y423012D01*
X1097176Y422992D01*
X1097234Y422968D01*
X1097291Y422940D01*
X1097346Y422909D01*
X1097399Y422875D01*
X1097450Y422837D01*
X1097498Y422796D01*
X1097544Y422753D01*
X1097587Y422706D01*
X1097627Y422657D01*
X1097664Y422606D01*
X1097697Y422553D01*
X1097727Y422497D01*
X1097754Y422440D01*
X1097777Y422381D01*
X1097796Y422321D01*
X1097812Y422259D01*
X1097824Y422197D01*
X1097832Y422135D01*
X1097836Y422072D01*
X1097836Y422008D01*
X1097832Y421945D01*
X1097824Y421883D01*
X1097812Y421821D01*
X1097796Y421759D01*
X1097777Y421699D01*
X1097754Y421640D01*
X1097727Y421583D01*
X1097697Y421527D01*
X1097664Y421474D01*
X1097627Y421423D01*
X1097587Y421374D01*
X1097544Y421327D01*
X1097498Y421284D01*
X1097450Y421243D01*
X1097399Y421205D01*
X1097346Y421171D01*
X1097291Y421140D01*
X1097234Y421112D01*
X1097176Y421088D01*
X1097116Y421068D01*
X1097055Y421052D01*
X1096993Y421039D01*
X1096930Y421030D01*
X1096867Y421025D01*
X1096804Y421024D01*
X1096741Y421027D01*
X1096678Y421034D01*
X1096616Y421045D01*
X1096554Y421059D01*
X1096494Y421078D01*
X1096435Y421100D01*
X1096377Y421126D01*
X1096321Y421155D01*
X1096267Y421188D01*
X1096215Y421224D01*
X1096166Y421263D01*
X1096119Y421305D01*
X1096074Y421350D01*
X1096033Y421398D01*
X1095994Y421448D01*
X1095959Y421500D01*
X1095927Y421555D01*
X1095899Y421611D01*
X1095874Y421670D01*
X1095853Y421729D01*
X1095835Y421790D01*
X1095822Y421851D01*
X1095812Y421914D01*
X1095806Y421977D01*
X1095804Y422040D01*
D12*
X1095319Y472526D02*
X1091565Y472526D01*
X1095319Y472526D02*
X1095384Y472524D01*
X1095448Y472518D01*
X1095512Y472508D01*
X1095576Y472495D01*
X1095638Y472477D01*
X1095699Y472456D01*
X1095759Y472432D01*
X1095817Y472403D01*
X1095874Y472371D01*
X1095928Y472336D01*
X1095980Y472298D01*
X1096030Y472256D01*
X1096077Y472212D01*
X1096121Y472165D01*
X1096163Y472115D01*
X1096201Y472063D01*
X1096236Y472009D01*
X1096268Y471952D01*
X1096297Y471894D01*
X1096321Y471834D01*
X1096342Y471773D01*
X1096360Y471711D01*
X1096373Y471647D01*
X1096383Y471583D01*
X1096389Y471519D01*
X1096391Y471454D01*
X1096391Y470917D01*
X1096391Y475474D02*
X1096391Y476814D01*
X1096389Y476885D01*
X1096383Y476957D01*
X1096374Y477027D01*
X1096361Y477097D01*
X1096344Y477167D01*
X1096323Y477235D01*
X1096299Y477302D01*
X1096271Y477368D01*
X1096240Y477432D01*
X1096205Y477495D01*
X1096167Y477555D01*
X1096126Y477614D01*
X1096082Y477670D01*
X1096035Y477724D01*
X1095986Y477775D01*
X1095933Y477823D01*
X1095878Y477869D01*
X1095821Y477911D01*
X1095761Y477951D01*
X1095700Y477987D01*
X1095636Y478020D01*
X1095571Y478049D01*
X1095505Y478075D01*
X1095437Y478098D01*
X1095368Y478117D01*
X1095298Y478132D01*
X1095228Y478143D01*
X1095157Y478151D01*
X1095086Y478155D01*
X1095014Y478155D01*
X1094943Y478151D01*
X1094872Y478143D01*
X1094802Y478132D01*
X1094732Y478117D01*
X1094663Y478098D01*
X1094595Y478075D01*
X1094529Y478049D01*
X1094464Y478020D01*
X1094400Y477987D01*
X1094339Y477951D01*
X1094279Y477911D01*
X1094222Y477869D01*
X1094167Y477823D01*
X1094114Y477775D01*
X1094065Y477724D01*
X1094018Y477670D01*
X1093974Y477614D01*
X1093933Y477555D01*
X1093895Y477495D01*
X1093860Y477432D01*
X1093829Y477368D01*
X1093801Y477302D01*
X1093777Y477235D01*
X1093756Y477167D01*
X1093739Y477097D01*
X1093726Y477027D01*
X1093717Y476957D01*
X1093711Y476885D01*
X1093709Y476814D01*
X1091565Y477083D02*
X1091565Y475474D01*
X1091565Y477083D02*
X1091567Y477148D01*
X1091573Y477212D01*
X1091583Y477276D01*
X1091596Y477340D01*
X1091614Y477402D01*
X1091635Y477463D01*
X1091659Y477523D01*
X1091688Y477581D01*
X1091720Y477638D01*
X1091755Y477692D01*
X1091793Y477744D01*
X1091835Y477794D01*
X1091879Y477841D01*
X1091926Y477885D01*
X1091976Y477927D01*
X1092028Y477965D01*
X1092082Y478000D01*
X1092139Y478032D01*
X1092197Y478061D01*
X1092257Y478085D01*
X1092318Y478106D01*
X1092380Y478124D01*
X1092444Y478137D01*
X1092508Y478147D01*
X1092572Y478153D01*
X1092637Y478155D01*
X1092702Y478153D01*
X1092766Y478147D01*
X1092830Y478137D01*
X1092894Y478124D01*
X1092956Y478106D01*
X1093017Y478085D01*
X1093077Y478061D01*
X1093135Y478032D01*
X1093192Y478000D01*
X1093246Y477965D01*
X1093298Y477927D01*
X1093348Y477885D01*
X1093395Y477841D01*
X1093439Y477794D01*
X1093481Y477744D01*
X1093519Y477692D01*
X1093554Y477638D01*
X1093586Y477581D01*
X1093615Y477523D01*
X1093639Y477463D01*
X1093660Y477402D01*
X1093678Y477340D01*
X1093691Y477276D01*
X1093701Y477212D01*
X1093707Y477148D01*
X1093709Y477083D01*
X1093710Y477083D02*
X1093710Y476010D01*
X975200Y356400D02*
X955200Y356400D01*
D13*
X949200Y356400D02*
X881200Y356400D01*
X949200Y356400D02*
X980200Y356400D01*
X980200Y456400D02*
X949200Y456400D01*
X881200Y456400D01*
X980200Y456400D02*
X980200Y356400D01*
X949200Y356400D02*
X949200Y456400D01*
X881200Y378400D02*
X881200Y356400D01*
X881200Y378400D02*
X891200Y378400D01*
X891200Y434400D01*
X881200Y434400D01*
X881200Y456400D01*
D14*
X983488Y360003D02*
X989612Y360003D01*
X989693Y360001D01*
X989773Y359996D01*
X989854Y359986D01*
X989934Y359973D01*
X990013Y359957D01*
X990091Y359936D01*
X990168Y359912D01*
X990244Y359885D01*
X990319Y359854D01*
X990392Y359820D01*
X990464Y359782D01*
X990533Y359741D01*
X990601Y359697D01*
X990667Y359650D01*
X990730Y359599D01*
X990791Y359546D01*
X990849Y359490D01*
X990905Y359432D01*
X990958Y359371D01*
X991009Y359308D01*
X991056Y359242D01*
X991100Y359174D01*
X991141Y359105D01*
X991179Y359033D01*
X991213Y358960D01*
X991244Y358885D01*
X991271Y358809D01*
X991295Y358732D01*
X991316Y358654D01*
X991332Y358575D01*
X991345Y358495D01*
X991355Y358414D01*
X991360Y358334D01*
X991362Y358253D01*
X991362Y357378D01*
X989612Y363856D02*
X983488Y365606D01*
X989612Y363856D02*
X989612Y368231D01*
X987862Y366918D02*
X991362Y366918D01*
D12*
X511100Y447600D02*
X511100Y517600D01*
X525100Y517600D01*
X567100Y517600D01*
X581100Y517600D01*
X581100Y447600D01*
X567100Y447600D01*
X525100Y447600D01*
X511100Y447600D01*
X525100Y447600D02*
X525100Y517600D01*
X567100Y517600D02*
X567100Y447600D01*
X531100Y465300D02*
X531105Y465668D01*
X531118Y466036D01*
X531141Y466403D01*
X531172Y466770D01*
X531213Y467136D01*
X531262Y467501D01*
X531321Y467864D01*
X531388Y468226D01*
X531464Y468587D01*
X531550Y468945D01*
X531643Y469301D01*
X531746Y469654D01*
X531857Y470005D01*
X531977Y470353D01*
X532105Y470698D01*
X532242Y471040D01*
X532387Y471379D01*
X532540Y471713D01*
X532702Y472044D01*
X532871Y472371D01*
X533049Y472693D01*
X533234Y473012D01*
X533427Y473325D01*
X533628Y473634D01*
X533836Y473937D01*
X534052Y474235D01*
X534275Y474528D01*
X534505Y474816D01*
X534742Y475098D01*
X534986Y475373D01*
X535236Y475643D01*
X535493Y475907D01*
X535757Y476164D01*
X536027Y476414D01*
X536302Y476658D01*
X536584Y476895D01*
X536872Y477125D01*
X537165Y477348D01*
X537463Y477564D01*
X537766Y477772D01*
X538075Y477973D01*
X538388Y478166D01*
X538707Y478351D01*
X539029Y478529D01*
X539356Y478698D01*
X539687Y478860D01*
X540021Y479013D01*
X540360Y479158D01*
X540702Y479295D01*
X541047Y479423D01*
X541395Y479543D01*
X541746Y479654D01*
X542099Y479757D01*
X542455Y479850D01*
X542813Y479936D01*
X543174Y480012D01*
X543536Y480079D01*
X543899Y480138D01*
X544264Y480187D01*
X544630Y480228D01*
X544997Y480259D01*
X545364Y480282D01*
X545732Y480295D01*
X546100Y480300D01*
X546468Y480295D01*
X546836Y480282D01*
X547203Y480259D01*
X547570Y480228D01*
X547936Y480187D01*
X548301Y480138D01*
X548664Y480079D01*
X549026Y480012D01*
X549387Y479936D01*
X549745Y479850D01*
X550101Y479757D01*
X550454Y479654D01*
X550805Y479543D01*
X551153Y479423D01*
X551498Y479295D01*
X551840Y479158D01*
X552179Y479013D01*
X552513Y478860D01*
X552844Y478698D01*
X553171Y478529D01*
X553493Y478351D01*
X553812Y478166D01*
X554125Y477973D01*
X554434Y477772D01*
X554737Y477564D01*
X555035Y477348D01*
X555328Y477125D01*
X555616Y476895D01*
X555898Y476658D01*
X556173Y476414D01*
X556443Y476164D01*
X556707Y475907D01*
X556964Y475643D01*
X557214Y475373D01*
X557458Y475098D01*
X557695Y474816D01*
X557925Y474528D01*
X558148Y474235D01*
X558364Y473937D01*
X558572Y473634D01*
X558773Y473325D01*
X558966Y473012D01*
X559151Y472693D01*
X559329Y472371D01*
X559498Y472044D01*
X559660Y471713D01*
X559813Y471379D01*
X559958Y471040D01*
X560095Y470698D01*
X560223Y470353D01*
X560343Y470005D01*
X560454Y469654D01*
X560557Y469301D01*
X560650Y468945D01*
X560736Y468587D01*
X560812Y468226D01*
X560879Y467864D01*
X560938Y467501D01*
X560987Y467136D01*
X561028Y466770D01*
X561059Y466403D01*
X561082Y466036D01*
X561095Y465668D01*
X561100Y465300D01*
X561095Y464932D01*
X561082Y464564D01*
X561059Y464197D01*
X561028Y463830D01*
X560987Y463464D01*
X560938Y463099D01*
X560879Y462736D01*
X560812Y462374D01*
X560736Y462013D01*
X560650Y461655D01*
X560557Y461299D01*
X560454Y460946D01*
X560343Y460595D01*
X560223Y460247D01*
X560095Y459902D01*
X559958Y459560D01*
X559813Y459221D01*
X559660Y458887D01*
X559498Y458556D01*
X559329Y458229D01*
X559151Y457907D01*
X558966Y457588D01*
X558773Y457275D01*
X558572Y456966D01*
X558364Y456663D01*
X558148Y456365D01*
X557925Y456072D01*
X557695Y455784D01*
X557458Y455502D01*
X557214Y455227D01*
X556964Y454957D01*
X556707Y454693D01*
X556443Y454436D01*
X556173Y454186D01*
X555898Y453942D01*
X555616Y453705D01*
X555328Y453475D01*
X555035Y453252D01*
X554737Y453036D01*
X554434Y452828D01*
X554125Y452627D01*
X553812Y452434D01*
X553493Y452249D01*
X553171Y452071D01*
X552844Y451902D01*
X552513Y451740D01*
X552179Y451587D01*
X551840Y451442D01*
X551498Y451305D01*
X551153Y451177D01*
X550805Y451057D01*
X550454Y450946D01*
X550101Y450843D01*
X549745Y450750D01*
X549387Y450664D01*
X549026Y450588D01*
X548664Y450521D01*
X548301Y450462D01*
X547936Y450413D01*
X547570Y450372D01*
X547203Y450341D01*
X546836Y450318D01*
X546468Y450305D01*
X546100Y450300D01*
X545732Y450305D01*
X545364Y450318D01*
X544997Y450341D01*
X544630Y450372D01*
X544264Y450413D01*
X543899Y450462D01*
X543536Y450521D01*
X543174Y450588D01*
X542813Y450664D01*
X542455Y450750D01*
X542099Y450843D01*
X541746Y450946D01*
X541395Y451057D01*
X541047Y451177D01*
X540702Y451305D01*
X540360Y451442D01*
X540021Y451587D01*
X539687Y451740D01*
X539356Y451902D01*
X539029Y452071D01*
X538707Y452249D01*
X538388Y452434D01*
X538075Y452627D01*
X537766Y452828D01*
X537463Y453036D01*
X537165Y453252D01*
X536872Y453475D01*
X536584Y453705D01*
X536302Y453942D01*
X536027Y454186D01*
X535757Y454436D01*
X535493Y454693D01*
X535236Y454957D01*
X534986Y455227D01*
X534742Y455502D01*
X534505Y455784D01*
X534275Y456072D01*
X534052Y456365D01*
X533836Y456663D01*
X533628Y456966D01*
X533427Y457275D01*
X533234Y457588D01*
X533049Y457907D01*
X532871Y458229D01*
X532702Y458556D01*
X532540Y458887D01*
X532387Y459221D01*
X532242Y459560D01*
X532105Y459902D01*
X531977Y460247D01*
X531857Y460595D01*
X531746Y460946D01*
X531643Y461299D01*
X531550Y461655D01*
X531464Y462013D01*
X531388Y462374D01*
X531321Y462736D01*
X531262Y463099D01*
X531213Y463464D01*
X531172Y463830D01*
X531141Y464197D01*
X531118Y464564D01*
X531105Y464932D01*
X531100Y465300D01*
X531100Y499900D02*
X531105Y500268D01*
X531118Y500636D01*
X531141Y501003D01*
X531172Y501370D01*
X531213Y501736D01*
X531262Y502101D01*
X531321Y502464D01*
X531388Y502826D01*
X531464Y503187D01*
X531550Y503545D01*
X531643Y503901D01*
X531746Y504254D01*
X531857Y504605D01*
X531977Y504953D01*
X532105Y505298D01*
X532242Y505640D01*
X532387Y505979D01*
X532540Y506313D01*
X532702Y506644D01*
X532871Y506971D01*
X533049Y507293D01*
X533234Y507612D01*
X533427Y507925D01*
X533628Y508234D01*
X533836Y508537D01*
X534052Y508835D01*
X534275Y509128D01*
X534505Y509416D01*
X534742Y509698D01*
X534986Y509973D01*
X535236Y510243D01*
X535493Y510507D01*
X535757Y510764D01*
X536027Y511014D01*
X536302Y511258D01*
X536584Y511495D01*
X536872Y511725D01*
X537165Y511948D01*
X537463Y512164D01*
X537766Y512372D01*
X538075Y512573D01*
X538388Y512766D01*
X538707Y512951D01*
X539029Y513129D01*
X539356Y513298D01*
X539687Y513460D01*
X540021Y513613D01*
X540360Y513758D01*
X540702Y513895D01*
X541047Y514023D01*
X541395Y514143D01*
X541746Y514254D01*
X542099Y514357D01*
X542455Y514450D01*
X542813Y514536D01*
X543174Y514612D01*
X543536Y514679D01*
X543899Y514738D01*
X544264Y514787D01*
X544630Y514828D01*
X544997Y514859D01*
X545364Y514882D01*
X545732Y514895D01*
X546100Y514900D01*
X546468Y514895D01*
X546836Y514882D01*
X547203Y514859D01*
X547570Y514828D01*
X547936Y514787D01*
X548301Y514738D01*
X548664Y514679D01*
X549026Y514612D01*
X549387Y514536D01*
X549745Y514450D01*
X550101Y514357D01*
X550454Y514254D01*
X550805Y514143D01*
X551153Y514023D01*
X551498Y513895D01*
X551840Y513758D01*
X552179Y513613D01*
X552513Y513460D01*
X552844Y513298D01*
X553171Y513129D01*
X553493Y512951D01*
X553812Y512766D01*
X554125Y512573D01*
X554434Y512372D01*
X554737Y512164D01*
X555035Y511948D01*
X555328Y511725D01*
X555616Y511495D01*
X555898Y511258D01*
X556173Y511014D01*
X556443Y510764D01*
X556707Y510507D01*
X556964Y510243D01*
X557214Y509973D01*
X557458Y509698D01*
X557695Y509416D01*
X557925Y509128D01*
X558148Y508835D01*
X558364Y508537D01*
X558572Y508234D01*
X558773Y507925D01*
X558966Y507612D01*
X559151Y507293D01*
X559329Y506971D01*
X559498Y506644D01*
X559660Y506313D01*
X559813Y505979D01*
X559958Y505640D01*
X560095Y505298D01*
X560223Y504953D01*
X560343Y504605D01*
X560454Y504254D01*
X560557Y503901D01*
X560650Y503545D01*
X560736Y503187D01*
X560812Y502826D01*
X560879Y502464D01*
X560938Y502101D01*
X560987Y501736D01*
X561028Y501370D01*
X561059Y501003D01*
X561082Y500636D01*
X561095Y500268D01*
X561100Y499900D01*
X561095Y499532D01*
X561082Y499164D01*
X561059Y498797D01*
X561028Y498430D01*
X560987Y498064D01*
X560938Y497699D01*
X560879Y497336D01*
X560812Y496974D01*
X560736Y496613D01*
X560650Y496255D01*
X560557Y495899D01*
X560454Y495546D01*
X560343Y495195D01*
X560223Y494847D01*
X560095Y494502D01*
X559958Y494160D01*
X559813Y493821D01*
X559660Y493487D01*
X559498Y493156D01*
X559329Y492829D01*
X559151Y492507D01*
X558966Y492188D01*
X558773Y491875D01*
X558572Y491566D01*
X558364Y491263D01*
X558148Y490965D01*
X557925Y490672D01*
X557695Y490384D01*
X557458Y490102D01*
X557214Y489827D01*
X556964Y489557D01*
X556707Y489293D01*
X556443Y489036D01*
X556173Y488786D01*
X555898Y488542D01*
X555616Y488305D01*
X555328Y488075D01*
X555035Y487852D01*
X554737Y487636D01*
X554434Y487428D01*
X554125Y487227D01*
X553812Y487034D01*
X553493Y486849D01*
X553171Y486671D01*
X552844Y486502D01*
X552513Y486340D01*
X552179Y486187D01*
X551840Y486042D01*
X551498Y485905D01*
X551153Y485777D01*
X550805Y485657D01*
X550454Y485546D01*
X550101Y485443D01*
X549745Y485350D01*
X549387Y485264D01*
X549026Y485188D01*
X548664Y485121D01*
X548301Y485062D01*
X547936Y485013D01*
X547570Y484972D01*
X547203Y484941D01*
X546836Y484918D01*
X546468Y484905D01*
X546100Y484900D01*
X545732Y484905D01*
X545364Y484918D01*
X544997Y484941D01*
X544630Y484972D01*
X544264Y485013D01*
X543899Y485062D01*
X543536Y485121D01*
X543174Y485188D01*
X542813Y485264D01*
X542455Y485350D01*
X542099Y485443D01*
X541746Y485546D01*
X541395Y485657D01*
X541047Y485777D01*
X540702Y485905D01*
X540360Y486042D01*
X540021Y486187D01*
X539687Y486340D01*
X539356Y486502D01*
X539029Y486671D01*
X538707Y486849D01*
X538388Y487034D01*
X538075Y487227D01*
X537766Y487428D01*
X537463Y487636D01*
X537165Y487852D01*
X536872Y488075D01*
X536584Y488305D01*
X536302Y488542D01*
X536027Y488786D01*
X535757Y489036D01*
X535493Y489293D01*
X535236Y489557D01*
X534986Y489827D01*
X534742Y490102D01*
X534505Y490384D01*
X534275Y490672D01*
X534052Y490965D01*
X533836Y491263D01*
X533628Y491566D01*
X533427Y491875D01*
X533234Y492188D01*
X533049Y492507D01*
X532871Y492829D01*
X532702Y493156D01*
X532540Y493487D01*
X532387Y493821D01*
X532242Y494160D01*
X532105Y494502D01*
X531977Y494847D01*
X531857Y495195D01*
X531746Y495546D01*
X531643Y495899D01*
X531550Y496255D01*
X531464Y496613D01*
X531388Y496974D01*
X531321Y497336D01*
X531262Y497699D01*
X531213Y498064D01*
X531172Y498430D01*
X531141Y498797D01*
X531118Y499164D01*
X531105Y499532D01*
X531100Y499900D01*
D14*
X585978Y451443D02*
X592102Y451443D01*
X592183Y451441D01*
X592263Y451436D01*
X592344Y451426D01*
X592424Y451413D01*
X592503Y451397D01*
X592581Y451376D01*
X592658Y451352D01*
X592734Y451325D01*
X592809Y451294D01*
X592882Y451260D01*
X592954Y451222D01*
X593023Y451181D01*
X593091Y451137D01*
X593157Y451090D01*
X593220Y451039D01*
X593281Y450986D01*
X593339Y450930D01*
X593395Y450872D01*
X593448Y450811D01*
X593499Y450748D01*
X593546Y450682D01*
X593590Y450614D01*
X593631Y450545D01*
X593669Y450473D01*
X593703Y450400D01*
X593734Y450325D01*
X593761Y450249D01*
X593785Y450172D01*
X593806Y450094D01*
X593822Y450015D01*
X593835Y449935D01*
X593845Y449854D01*
X593850Y449774D01*
X593852Y449693D01*
X593852Y448818D01*
X593852Y455296D02*
X593852Y457921D01*
X593850Y458002D01*
X593845Y458082D01*
X593835Y458163D01*
X593822Y458243D01*
X593806Y458322D01*
X593785Y458400D01*
X593761Y458477D01*
X593734Y458553D01*
X593703Y458628D01*
X593669Y458701D01*
X593631Y458773D01*
X593590Y458842D01*
X593546Y458910D01*
X593499Y458976D01*
X593448Y459039D01*
X593395Y459100D01*
X593339Y459158D01*
X593281Y459214D01*
X593220Y459267D01*
X593157Y459318D01*
X593091Y459365D01*
X593023Y459409D01*
X592954Y459450D01*
X592882Y459488D01*
X592809Y459522D01*
X592734Y459553D01*
X592658Y459580D01*
X592581Y459604D01*
X592503Y459625D01*
X592424Y459641D01*
X592344Y459654D01*
X592263Y459664D01*
X592183Y459669D01*
X592102Y459671D01*
X591227Y459671D01*
X591144Y459669D01*
X591061Y459663D01*
X590978Y459653D01*
X590896Y459639D01*
X590814Y459622D01*
X590734Y459600D01*
X590655Y459575D01*
X590577Y459546D01*
X590500Y459513D01*
X590425Y459476D01*
X590352Y459437D01*
X590281Y459393D01*
X590212Y459347D01*
X590145Y459297D01*
X590081Y459244D01*
X590019Y459188D01*
X589960Y459129D01*
X589904Y459067D01*
X589851Y459003D01*
X589802Y458936D01*
X589755Y458867D01*
X589711Y458796D01*
X589672Y458723D01*
X589635Y458648D01*
X589602Y458571D01*
X589573Y458493D01*
X589548Y458414D01*
X589526Y458334D01*
X589509Y458252D01*
X589495Y458170D01*
X589485Y458087D01*
X589479Y458004D01*
X589477Y457921D01*
X589478Y457921D02*
X589478Y455296D01*
X585978Y455296D01*
X585978Y459671D01*
D11*
X685546Y429228D02*
X685546Y383572D01*
X635254Y383572D02*
X635254Y429228D01*
D15*
X644144Y394208D03*
X628650Y381508D03*
D12*
X689483Y386207D02*
X692968Y386207D01*
X693039Y386209D01*
X693111Y386215D01*
X693181Y386224D01*
X693251Y386237D01*
X693321Y386254D01*
X693389Y386275D01*
X693456Y386299D01*
X693522Y386327D01*
X693586Y386358D01*
X693649Y386393D01*
X693709Y386431D01*
X693768Y386472D01*
X693824Y386516D01*
X693878Y386563D01*
X693929Y386612D01*
X693977Y386665D01*
X694023Y386720D01*
X694065Y386777D01*
X694105Y386837D01*
X694141Y386898D01*
X694174Y386962D01*
X694203Y387027D01*
X694229Y387093D01*
X694252Y387161D01*
X694271Y387230D01*
X694286Y387300D01*
X694297Y387370D01*
X694305Y387441D01*
X694309Y387512D01*
X694309Y387584D01*
X694305Y387655D01*
X694297Y387726D01*
X694286Y387796D01*
X694271Y387866D01*
X694252Y387935D01*
X694229Y388003D01*
X694203Y388069D01*
X694174Y388134D01*
X694141Y388198D01*
X694105Y388259D01*
X694065Y388319D01*
X694023Y388376D01*
X693977Y388431D01*
X693929Y388484D01*
X693878Y388533D01*
X693824Y388580D01*
X693768Y388624D01*
X693709Y388665D01*
X693649Y388703D01*
X693586Y388738D01*
X693522Y388769D01*
X693456Y388797D01*
X693389Y388821D01*
X693321Y388842D01*
X693251Y388859D01*
X693181Y388872D01*
X693111Y388881D01*
X693039Y388887D01*
X692968Y388889D01*
X692968Y388888D02*
X689483Y388888D01*
X690555Y391876D02*
X689483Y393217D01*
X694309Y393217D01*
X694309Y394557D02*
X694309Y391876D01*
D11*
X793750Y533400D02*
X806450Y533400D01*
X812800Y527050D01*
X812800Y514350D02*
X806450Y508000D01*
X768350Y533400D02*
X762000Y527050D01*
X768350Y533400D02*
X781050Y533400D01*
X787400Y527050D01*
X787400Y514350D02*
X781050Y508000D01*
X768350Y508000D01*
X762000Y514350D01*
X787400Y527050D02*
X793750Y533400D01*
X787400Y514350D02*
X793750Y508000D01*
X806450Y508000D01*
X730250Y533400D02*
X717550Y533400D01*
X730250Y533400D02*
X736600Y527050D01*
X736600Y514350D02*
X730250Y508000D01*
X736600Y527050D02*
X742950Y533400D01*
X755650Y533400D01*
X762000Y527050D01*
X762000Y514350D02*
X755650Y508000D01*
X742950Y508000D01*
X736600Y514350D01*
X692150Y533400D02*
X685800Y527050D01*
X692150Y533400D02*
X704850Y533400D01*
X711200Y527050D01*
X711200Y514350D02*
X704850Y508000D01*
X692150Y508000D01*
X685800Y514350D01*
X711200Y527050D02*
X717550Y533400D01*
X711200Y514350D02*
X717550Y508000D01*
X730250Y508000D01*
X654050Y533400D02*
X641350Y533400D01*
X654050Y533400D02*
X660400Y527050D01*
X660400Y514350D02*
X654050Y508000D01*
X660400Y527050D02*
X666750Y533400D01*
X679450Y533400D01*
X685800Y527050D01*
X685800Y514350D02*
X679450Y508000D01*
X666750Y508000D01*
X660400Y514350D01*
X635000Y514350D02*
X635000Y527050D01*
X641350Y533400D01*
X635000Y514350D02*
X641350Y508000D01*
X654050Y508000D01*
X819150Y533400D02*
X831850Y533400D01*
X838200Y527050D01*
X838200Y514350D01*
X831850Y508000D01*
X812800Y527050D02*
X819150Y533400D01*
X812800Y514350D02*
X819150Y508000D01*
X831850Y508000D01*
D12*
X642324Y541457D02*
X642324Y545211D01*
X642323Y541457D02*
X642321Y541392D01*
X642315Y541328D01*
X642305Y541264D01*
X642292Y541200D01*
X642274Y541138D01*
X642253Y541077D01*
X642229Y541017D01*
X642200Y540959D01*
X642168Y540902D01*
X642133Y540848D01*
X642095Y540796D01*
X642053Y540746D01*
X642009Y540699D01*
X641962Y540655D01*
X641912Y540613D01*
X641860Y540575D01*
X641806Y540540D01*
X641749Y540508D01*
X641691Y540479D01*
X641631Y540455D01*
X641570Y540434D01*
X641508Y540416D01*
X641444Y540403D01*
X641380Y540393D01*
X641316Y540387D01*
X641251Y540385D01*
X640715Y540385D01*
X645272Y543066D02*
X646880Y543066D01*
X646945Y543064D01*
X647009Y543058D01*
X647073Y543048D01*
X647137Y543035D01*
X647199Y543017D01*
X647260Y542996D01*
X647320Y542972D01*
X647378Y542943D01*
X647435Y542911D01*
X647489Y542876D01*
X647541Y542838D01*
X647591Y542796D01*
X647638Y542752D01*
X647682Y542705D01*
X647724Y542655D01*
X647762Y542603D01*
X647797Y542549D01*
X647829Y542492D01*
X647858Y542434D01*
X647882Y542374D01*
X647903Y542313D01*
X647921Y542251D01*
X647934Y542187D01*
X647944Y542123D01*
X647950Y542059D01*
X647952Y541994D01*
X647953Y541994D02*
X647953Y541726D01*
X647951Y541655D01*
X647945Y541583D01*
X647936Y541513D01*
X647923Y541443D01*
X647906Y541373D01*
X647885Y541305D01*
X647861Y541238D01*
X647833Y541172D01*
X647802Y541108D01*
X647767Y541045D01*
X647729Y540985D01*
X647688Y540926D01*
X647644Y540870D01*
X647597Y540816D01*
X647548Y540765D01*
X647495Y540717D01*
X647440Y540671D01*
X647383Y540629D01*
X647323Y540589D01*
X647262Y540553D01*
X647198Y540520D01*
X647133Y540491D01*
X647067Y540465D01*
X646999Y540442D01*
X646930Y540423D01*
X646860Y540408D01*
X646790Y540397D01*
X646719Y540389D01*
X646648Y540385D01*
X646576Y540385D01*
X646505Y540389D01*
X646434Y540397D01*
X646364Y540408D01*
X646294Y540423D01*
X646225Y540442D01*
X646157Y540465D01*
X646091Y540491D01*
X646026Y540520D01*
X645962Y540553D01*
X645901Y540589D01*
X645841Y540629D01*
X645784Y540671D01*
X645729Y540717D01*
X645676Y540765D01*
X645627Y540816D01*
X645580Y540870D01*
X645536Y540926D01*
X645495Y540985D01*
X645457Y541045D01*
X645422Y541108D01*
X645391Y541172D01*
X645363Y541238D01*
X645339Y541305D01*
X645318Y541373D01*
X645301Y541443D01*
X645288Y541513D01*
X645279Y541583D01*
X645273Y541655D01*
X645271Y541726D01*
X645272Y541726D02*
X645272Y543066D01*
X645274Y543157D01*
X645280Y543248D01*
X645289Y543338D01*
X645303Y543429D01*
X645320Y543518D01*
X645341Y543606D01*
X645366Y543694D01*
X645395Y543781D01*
X645427Y543866D01*
X645462Y543950D01*
X645502Y544032D01*
X645544Y544112D01*
X645590Y544191D01*
X645640Y544267D01*
X645692Y544341D01*
X645748Y544414D01*
X645807Y544483D01*
X645868Y544550D01*
X645933Y544615D01*
X646000Y544676D01*
X646069Y544735D01*
X646141Y544791D01*
X646216Y544843D01*
X646292Y544893D01*
X646371Y544939D01*
X646451Y544981D01*
X646533Y545021D01*
X646617Y545056D01*
X646702Y545088D01*
X646789Y545117D01*
X646876Y545142D01*
X646965Y545163D01*
X647054Y545180D01*
X647145Y545194D01*
X647235Y545203D01*
X647326Y545209D01*
X647417Y545211D01*
D11*
X952500Y527050D02*
X958850Y533400D01*
X971550Y533400D01*
X977900Y527050D01*
X977900Y514350D02*
X971550Y508000D01*
X958850Y508000D01*
X952500Y514350D01*
X920750Y533400D02*
X908050Y533400D01*
X920750Y533400D02*
X927100Y527050D01*
X927100Y514350D02*
X920750Y508000D01*
X927100Y527050D02*
X933450Y533400D01*
X946150Y533400D01*
X952500Y527050D01*
X952500Y514350D02*
X946150Y508000D01*
X933450Y508000D01*
X927100Y514350D01*
X901700Y514350D02*
X901700Y527050D01*
X908050Y533400D01*
X901700Y514350D02*
X908050Y508000D01*
X920750Y508000D01*
X977900Y514350D02*
X977900Y527050D01*
D12*
X909024Y541457D02*
X909024Y545211D01*
X909023Y541457D02*
X909021Y541392D01*
X909015Y541328D01*
X909005Y541264D01*
X908992Y541200D01*
X908974Y541138D01*
X908953Y541077D01*
X908929Y541017D01*
X908900Y540959D01*
X908868Y540902D01*
X908833Y540848D01*
X908795Y540796D01*
X908753Y540746D01*
X908709Y540699D01*
X908662Y540655D01*
X908612Y540613D01*
X908560Y540575D01*
X908506Y540540D01*
X908449Y540508D01*
X908391Y540479D01*
X908331Y540455D01*
X908270Y540434D01*
X908208Y540416D01*
X908144Y540403D01*
X908080Y540393D01*
X908016Y540387D01*
X907951Y540385D01*
X907415Y540385D01*
X911972Y544675D02*
X911972Y545211D01*
X914653Y545211D01*
X913312Y540385D01*
M02*
