G04 EAGLE Gerber RS-274X export*
G75*
%MOMM*%
%FSLAX34Y34*%
%LPD*%
%INSoldermask Bottom*%
%IPPOS*%
%AMOC8*
5,1,8,0,0,1.08239X$1,22.5*%
G01*
%ADD10C,3.302000*%
%ADD11C,2.082800*%
%ADD12R,1.511200X1.511200*%
%ADD13C,1.511200*%
%ADD14R,2.053200X2.053200*%
%ADD15C,2.053200*%
%ADD16C,1.703200*%


D10*
X543560Y608330D03*
X542290Y377190D03*
X1122680Y608330D03*
X1122680Y378460D03*
D11*
X591566Y594868D03*
X616966Y594868D03*
X642366Y594868D03*
X667766Y594868D03*
X693166Y594868D03*
X718566Y594868D03*
X743966Y594868D03*
X769366Y594868D03*
X794766Y594868D03*
X820166Y594868D03*
X845566Y594868D03*
X870966Y594868D03*
X896366Y594868D03*
X896366Y620268D03*
X870966Y620268D03*
X845566Y620268D03*
X820166Y620268D03*
X794766Y620268D03*
X769366Y620268D03*
X743966Y620268D03*
X718566Y620268D03*
X693166Y620268D03*
X667766Y620268D03*
X642366Y620268D03*
X616966Y620268D03*
X591566Y620268D03*
X921766Y594868D03*
X921766Y620268D03*
X947166Y594868D03*
X947166Y620268D03*
X972566Y594868D03*
X972566Y620268D03*
X997966Y594868D03*
X997966Y620268D03*
X1023366Y594868D03*
X1023366Y620268D03*
X1048766Y594868D03*
X1048766Y620268D03*
X1074166Y594868D03*
X1074166Y620268D03*
D12*
X965200Y376400D03*
D13*
X965200Y396400D03*
X965200Y416400D03*
X965200Y436400D03*
D14*
X546100Y465100D03*
D15*
X546100Y500100D03*
D11*
X647700Y520700D03*
X673100Y520700D03*
X698500Y520700D03*
X723900Y520700D03*
X749300Y520700D03*
X774700Y520700D03*
X800100Y520700D03*
X825500Y520700D03*
X914400Y520700D03*
X939800Y520700D03*
X965200Y520700D03*
D16*
X1070356Y522732D03*
X1118362Y526288D03*
M02*
