M48
;GenerationSoftware,Autodesk,EAGLE,9.4.1*%
;CreationDate,2019-07-01T00:27:09Z*%
FMAT,2
ICI,OFF
METRIC,TZ,000.000
T5C0.800
T4C1.000
T3C1.016
T2C3.099
%
G90
M71
T2
X54356Y60833
X54229Y37719
X112268Y60833
X112268Y37846
T3
X104877Y59487
X59157Y62027
X102337Y62027
X102337Y59487
X99797Y62027
X99797Y59487
X97257Y62027
X97257Y59487
X94717Y62027
X94717Y59487
X92177Y62027
X92177Y59487
X98044Y41910
X104877Y62027
X107417Y59487
X107417Y62027
X64770Y41910
X67310Y41910
X69850Y41910
X72390Y41910
X74930Y41910
X77470Y41910
X80010Y41910
X82550Y41910
X92964Y41910
X95504Y41910
X87097Y59487
X71857Y59487
X74397Y59487
X76937Y59487
X79477Y59487
X82017Y59487
X69317Y59487
X66777Y59487
X64237Y59487
X61697Y59487
X59157Y59487
X61697Y62027
X84557Y59487
X89637Y59487
X89637Y62027
X87097Y62027
X84557Y62027
X82017Y62027
X79477Y62027
X76937Y62027
X74397Y62027
X71857Y62027
X69317Y62027
X66777Y62027
X64237Y62027
T4
X106947Y51473
X54610Y50010
X54610Y46510
T5
X99060Y53800
X99060Y51800
X99060Y49800
X99060Y47800
M30