M48
;GenerationSoftware,Autodesk,EAGLE,9.4.1*%
;CreationDate,2019-05-19T17:21:26Z*%
FMAT,2
ICI,OFF
METRIC,TZ,000.000
T5C0.800
T4C1.000
T3C1.016
T2C3.099
%
G90
M71
T2
X54356Y60833
X54229Y37719
X112268Y60833
X112268Y37846
T3
X94717Y62027
X104877Y62027
X104877Y59487
X102337Y62027
X102337Y59487
X99797Y62027
X99797Y59487
X97257Y62027
X97257Y59487
X64770Y52070
X94717Y59487
X92177Y62027
X92177Y59487
X107417Y59487
X107417Y62027
X59157Y62027
X67310Y52070
X69850Y52070
X72390Y52070
X74930Y52070
X77470Y52070
X80010Y52070
X82550Y52070
X91440Y52070
X93980Y52070
X96520Y52070
X89637Y59487
X71857Y59487
X74397Y59487
X76937Y59487
X79477Y59487
X82017Y59487
X69317Y59487
X66777Y59487
X64237Y59487
X61697Y59487
X59157Y59487
X84557Y59487
X87097Y59487
X89637Y62027
X87097Y62027
X84557Y62027
X82017Y62027
X79477Y62027
X76937Y62027
X74397Y62027
X71857Y62027
X69317Y62027
X66777Y62027
X64237Y62027
X61697Y62027
T4
X107036Y52273
X111836Y52629
X54610Y50010
X54610Y46510
T5
X96520Y43640
X96520Y41640
X96520Y39640
X96520Y37640
M30